<?xml version="1.0" encoding="utf-8"?>
<!-- Generator: Adobe Illustrator 15.0.2, SVG Export Plug-In . SVG Version: 6.00 Build 0)  -->
<!DOCTYPE svg PUBLIC "-//W3C//DTD SVG 1.1//EN" "http://www.w3.org/Graphics/SVG/1.1/DTD/svg11.dtd">
<svg version="1.1" id="Ebene_1" xmlns="http://www.w3.org/2000/svg" xmlns:xlink="http://www.w3.org/1999/xlink" x="0px" y="0px"
	 width="1042px" height="877px" viewBox="26.5 0 1042 877" enable-background="new 26.5 0 1042 877" xml:space="preserve">
<g id="TZA">
	<path fill="#FDBF6F" stroke="#000000" stroke-linecap="round" stroke-linejoin="round" stroke-miterlimit="10" d="M377.51,700.12
		l1.23-1.878l1.759-1.542l0.014-0.017l0.322-2.455l0.007-0.029l0.473-2.571l-1.25-4.617l1.152-1.95l0.005-0.008l0.037-0.031
		l1.776-1.491l2.193-2.2l0.658,0.243l2.016,0.735l1.821,1.194l0.616,0.401l0.001-0.012l0.297-2.558l-3.11-3.116l-3.003-0.835
		l-2.345-3.205l-4.239-7.312l-1.738-2.244l-1.062-3.486l-2.629-0.581l2.054-2.506l-1.31-3.531l-1.797-3.307l-2.58-2.973l-0.457-3.72
		l4.417-7.265l3.182-2.864l4.209-0.845l5.711,1.963l2.156-0.715l0.787-2.249l3.921-1.611l4.525,0.406l4.452-0.11l7.719-1.9
		l7.418,1.06l3.989-0.088l3.58-1.437l2.716-2.9l2.02-4.084l2.485-1.752l2.894-1.072l2.535,0.299l1.735-1.201l1.942-5.099
		l0.902-5.105l-1.256-2.677l-1.657-2.429l-1.232-3.178l1.614-3.25l2.2-3.384l2.841-2.657l3.266-1.104l2.738-2.105l2.024-3.396
		l2.795-6.479l1.883-2.32l4.261-1.271l3.388-2.644l1.875-2.55l-2.129-2.172l-3.515-1.263l-3.733,0.31l-2.058-0.36l0.28-2.013
		l-0.768-2.37l-20.989-3.357l-3.309-1.086l-2.861-2.009l-11.475-2.718l-3.983-0.32l-36.067,1.874l-2.974-0.391l-1.126-2.278
		l0.666-3.19l1.412-2.891l2.102-2.806l1.765-3.035l2.115-5.025l1.543-1.874l-0.151-3.619l-1.999-1.335L375.68,525l-3.236-2.303
		l-2.801-1.135l-0.312-3.215l-1.386-3.264l-0.253-2.122l-0.991-1.802l-4.463-1.354l-1.521-1.561l-1.231-1.805l-1.846-3.449
		l-2.702-2.61l-3.309-1.237l-1.886-3.121l-0.605-4.269l-1.102-4.061l-1.781-2.563l-2.365-2l-16.87,1.046l-6.257-1.416l-5.399-3.604
		l-6.349-1.859l-6.665,1.592l-2.453,0.888l-1.848,1.713l-2.61,1.676l-3.404-0.334l-1.931,0.792l-0.899,1.973l-4.957,8.057l-2,1.5
		l-5.275,0.924l-5.416-0.105l-3.977,2.234l-17.633,6.195l-0.004,8.282l-3.04,8.513l-2.79,5.576l-7.95,3.088l-2.684,4.176
		l-3.006,6.334l-2.089,6.722l1.379,2.734l20.882,10.813l14.436,9.562l3.654,3.649l18.01,23.87l0.625,5.128l-2.906-0.541
		l-3.006,0.413l-3.217-0.256l-6.491-8.183l-0.38-2.26l-0.093-2.319l-1.179-1.94l-0.021-3.897l-2.029-0.94l-9.686,6.65l-4.752,0.193
		l-2.828,3.456l-0.237,4.462l1.361,4.235l-0.298,8.825l-5.75,7.418l-4.451,2.762l-9.6,3.504l-1.617,3.144l3.573,2.39l2.768,2.863
		l-1.567,2.225l1.401,1.548l1.75,1.236l3.023,2.765l1.02,3.16l-1.974,1.078l0.714,5.196l0.673,0.364l4.395,4.011l3.215,0.733
		l10.06-0.251l3.126,0.761l3.659,2.958l1.523,3.554l2.177,2.403l2.907,0.224l6.642,1.424l5.542,0.444l2.045,1.672l0.986,2.345
		l2.483,0.163l3.588,2.378l6.993,2.91l2.629-2.02l2.868,0.708l3.88,3.846l5.468,3.957l2.092,0.453l3.251,0.816l2.636-1.148
		l2.532,0.562l1.884-1.018l2.062,0.346l5.786,4.423l2.282,4.363l2.684,1.293l3.2,0.209l2.418-0.588l1.795-1.065l1.872-0.789
		l2.625,0.265l2.348,0.737l4.036,0.1l2.039-1.161l2.47-0.697l2.126,1.312l1.968,1.993l3.818,2.053l2.188,1.309l1.862,1.572
		l1.758,2.186L377.51,700.12z"/>
	<path fill="#B2DF8A" stroke="#000000" stroke-linecap="round" stroke-linejoin="round" stroke-miterlimit="10" d="M240.185,644.838
		l1.974-1.078l-1.02-3.16l-3.023-2.765l-1.75-1.236l-1.401-1.548l1.567-2.225l-2.768-2.863l-3.573-2.39l1.617-3.144l9.6-3.504
		l4.451-2.762l5.75-7.418l0.298-8.825l-1.361-4.235l0.237-4.462l2.828-3.456l4.752-0.193l9.686-6.65l2.029,0.94l0.021,3.897
		l1.179,1.94l0.093,2.319l0.38,2.26l6.491,8.183l3.217,0.256l3.006-0.413l2.906,0.541l-0.625-5.128l-18.01-23.87l-3.654-3.649
		l-14.436-9.562l-20.882-10.813l-1.379-2.734l2.089-6.722l3.006-6.334l2.684-4.176l7.95-3.088l2.79-5.576l3.04-8.513l0.004-8.282
		l17.633-6.195l3.977-2.234l1.8-7.854l0.774-8.007l-0.527-8.15l0.341-8.139l2.225-7.229l4.546-5.827l2.179-1.303l1.55-2.032
		l1.202-2.892l-1.286-2.163l-1.722-2.383l-11.301-0.931l-3.196-1.209l-2.397-2.46l-2.857-4.496l-1.904-1.476l-3.205-1.336
		l-3.552-1.739l-1.27-1.628l-0.467-1.992l-2.522-1.177l-4.038-2.14l-1.864-1.463l-1.996-2.198l-1.822-2.656l-1.317-2.829l-1.4-5.255
		l-1.51-2.71l0.038-3.851l-0.888-2.188l-2.117-2.048l-0.848-2.357l-2.118-0.508l-4.49-1.904l-2.571,0.584l-3.608-0.686l-3.197-0.674
		l-1.607-1.305l-2.298,0.506l-1.715,1.183l-1.513,1.416l-1.642,1.211l-2.174,1.084l-2.298,1.838l-4.59,1.819l-5.824-1.744
		l-1.657,1.426l-2.513-0.749l-3.043,0.783l-3.263-0.893l-4.326-1.218l-4.687,0.272l-2.522-0.865l-3.045-3.168l-3.147,0.848
		l-2.689-0.451l-0.138-2.727l0.181-3.096l-0.459-2.501l-2.153-0.773l-5.819-4.248l-0.737-3.099l2.417-3.209l-2.671-7.336
		l-1.678-1.901l-1.554-2.559l-1.59-2.036l-0.796-4.76l-2.703,0.096l-2.838,4.225l-1.674-1.274l-2.324-3.269l-1.94-1.342
		l-2.173,0.017l-0.535-0.469l-1.074-1.708l-2.481-1.548l-3.551-0.207l-21.464,0.305l-2.658,1.883l-4.987,5.758l-3.061,2.672
		l-3.807,0.922l-16.644,0.347l-1.369,1.769l7.12,5.951l3.039,6.74l5.336,29.77l2.273,6.399l4.766,8.716l2.46,6.724l3.617,2.144
		l2.522,2.839l-0.769,4.895l1.4,3.169l0.303,3.543l-7.319,5.12l-2.251,6.899l-1.62,2.23l3.493,3.595l2.716,1.313l2.469,4.789
		l2.93,3.723l0.48,2.806l1.354,3.054l5.142,5.73l1.857,1.162l4.438,3.518l0.979,4.798l-1.575,1.86l0.407,3.208l-1.155,2.188
		l-2.137,0.019l1.067,3.151l-0.09,2.671l1.643,1.572l0.889,2.783l3.303,7.129l0.539,3.046l-1.222,5.153l0.432,2.902l-1.225,2.693
		l3.139,5.402l1.679,1.45l1.099,2.629l1.438,1.695l2.113,0.959l1.267,1.567l1.032,2.351l5.233,12.507l1.896,1.705l1.365,3.792
		l2.396,2.206l2.444,3.534l0.568,4.297l1.304,2.875l2.22,0.031l0.793,2.88l-1.681,1.409l1.049,3.068l1.017,1.769l0.187,2.675
		l1.793,0.987l1.96,1.544l0.954,2.293l2.819,2.532l4.658,2.876l1.42,2.485l-0.799,4.879l0.09,2.912l1.571,1.287l0.824,3.49
		l0.211,0.186l1.058-0.668l2.779,0.602l2.317,2.579l2.242-0.473l4.87-1.662l1.985,0.248l1.565,2.646l2.046-0.029l2.388,0.698
		l2.915,2.693l2.988,0.825l1.545,1.287l0.552,1.989l0.015,2.912l0.619,3.349l1.793,2.378l8.805,6.197l3.148-0.586l4.401-1.606
		l11.551,3.09l-1.431,3.179l0.02,3.866l1.588,3.063l4.913,0.085l2.176-1.307l2.112,0.212l3.763,1.442l3.116,0.156L240.185,644.838z"
		/>
	<path fill="#71B7B2" stroke="#000000" stroke-linecap="round" stroke-linejoin="round" stroke-miterlimit="10" d="M814.792,446.176
		l1.979-2.329l0.394-3.38l-2.345-4.444l-1.335-11.453l-2.196-2.318l0.318,3.953l-2.17-0.76l-1.988,1.276l-2.129-1.778l1.341-1.777
		l-0.86-1.841l-0.166-2.202l0.517-2.02l0.049-2.011l-2.116-0.553l-0.925-3.739l-0.437,0.259l-2.989,1.949l-5.652,0.337l0.488,3.137
		l-0.525,6.138l0.12,2l2.125,3.244l0.296,2.086l0.678,0.577l2.401,3.808l2.013,2.166l0.072,2.712l2.169,0.833l0.494-2.193
		l0.365-2.296l2.223,8.26l2.155,2.41l2.842,0.867L814.792,446.176z"/>
	<path fill="#6A3D9A" stroke="#000000" stroke-linecap="round" stroke-linejoin="round" stroke-miterlimit="10" d="M279.183,207.398
		l-0.37-2.46l1.082-2.956l0.552-2.152l2.253,0.133l2.298-1.1l2.745-3.405l2.029,0.567l2.566-0.829l2.26-0.472l2.418,1.807
		l2.21,2.099l1.25,2.866l2.103,1.639l2.553,0.764l2.417,1.226l3.063,0.856l1.537,1.503l1.843,1.07l5.146-2.428l2.96-5.813
		l2.711-0.973l2.925,0.7l3.35-0.47l3.075-0.901l4.26-2.589l1.904-5.643l1.952-1.836l1.022-2.427l0.519-3.72l2.235-6.784l0.658-3.162
		l-2.429-8.758l1.112-1.995l3.044-1.906l3.181-1.728l2.14-1.379l5.392,1.55l2.978-2.329l2.941-0.499l1.51-1.526l0.264-2.223
		l-1.887-3.574l-3.575-2.188l-3.558-1.618l-2.848-2.525l0.561-3.978l2.704-3.254l4.032-1.103l4.132,1.428l9.418,0.684l-1.013-2.08
		l1.832-3.308l0.944-2.018l0.216-2.235l2.443-7.771l3.527-7.577l-3.104,0.291l-5.297-0.3l-2.053,0.961l-3.059-2.452l-1.223-3.069
		l-0.002-0.002l1.223,3.066l-0.472,1.975l1.011,2.568l-4.531,2.985l-5.079,1.613l-3.728,2.679l-2.658,0.445l-1.671,2.225
		l-4.298,1.937l-1.947,0.512l-1.472,1.481l1.057,2.231l-2.625,1.755l-2.197-0.312l-3.797,1.795l3.096,2.075l-0.435,2.586
		l-2.252,0.436l-1.728,1.551l-2.091-1.534l-2.204-0.575l0.531-2.094l-1.727,1.437l-3.388-0.431l-4.116,0.556l-2.055-0.396
		l-1.72-1.371l-1.176-1.944l-2.511-1.399l-0.905-1.838l-0.607-2.244l-3.034-0.87l-6.348-0.65l-2.848,0.639l-2.85,1.643l-1.817,2.278
		l0.288,2.5l-2.496,0.543l0.249,2.367l1.837,1.968l-1.89,4.226l-0.949,2.402l0.883,2.22l1.816,1.323l0.004,2.139l0.09,2.662
		l1.265,2.28l2.025,1.254l-0.529,2.568l1.923,1.273l1.757,2.325l2.168-0.243l1.492,1.829l-2.945,0.742l-4.516-2.068l-2.028-2.102
		l-0.683-1.927l-1.694,2.507l-2.84,1.537l-1.245,2.888l-0.021,2.7l-1.195,2.976l-3.027,3.028l-1.976-1.113l1.063-2.448l0.239-2.006
		l2.708-0.914l-2.513-2.372l-2.837-0.284l1.606-2.183l2.539-1.421l5.143-0.972l-0.227-2.444l1.654-3.022l0.557-2l-3.045-1.155
		l0.814-2.951l-2.109-0.929l-1.631-2.305l1.929-0.915l-0.437-2.623l1.016-1.76l-0.661-2.175l1.333-1.665l-1.321-1.631l-2.578-0.152
		l-2.015,0.359l-1.207,1.81l-1.138-1.887l-3.503,0.994l0.574-2.962l-1.992-3.075l-0.289-2.539l-2.394,1.632l-0.357,2.426
		l-6.335,6.687l-1.914,1.142l-0.674-2.717l1.878-1.833l0.987-2.207l-0.197-2.424l-2.576,1.9l-2.002-0.31l-2.038,0.229l-2.506-0.143
		l-3.02-1.546l-2.917-1.582l-1.573-2.915l-1.407-1.954l1.463-1.522l-2.292-4.898l-2.272,0.238l-3.024,0.356l-1.113-2.126
		l-0.214,2.903l-0.261,2.484l-3.457,3.891l-2.428,1.615l-2.115-1.538l-2.903-0.121l-1.368,2.29l0.273,2.023l2.362,0.868l0.777,1.887
		l3.006,1.744l2.152,2.309l-0.995,1.876l-1.762,1.918l-0.491-2.175l-2.381-0.876l-1.856-1.424l-3.319-1.525l-1.522,1.726
		l-1.736-1.107l-0.156,2.961l-0.271,2.56l-0.413,2.301l-2.031-0.162l-1.925,0.994l1.989,1.355l1.548,3.182l1.445,1.884l-0.05,2.113
		l1.875,1.68l-0.253,2.19l-2.716,0.44l-1.238-2.79l-0.428-2.684l-1.771-1.164l-0.408-2.5l-2.014,0.59l-0.272,3.412l-2.385,1.406
		l-0.301-2.348l-2.252-0.046l-1.19,1.637l0.375,2.397l1.047,2.745l-0.299,2.072l-0.47,0.451l0.35,1.339l3.399,4.318l2.605,1.224
		l2.242,1.502l-0.983,3.069l-0.379,2.626l-1.302,4.308l1.04,1.742l0.233,2.166l-0.623,2.028l0.222,3.46l-1.337,3.326l4.335-0.389
		l6.236,0.602l2.991-1.377l3.442,0.72l3.203,1.409l0.009,2.927l1.684,1.376l2.424-1.956l2.977-0.866l2.363,1.62l0.687,2.92
		l2.024,1.653l2.463,0.244l1.252-2.609l1.834-2.138l2.312-1.901l4.863-2.376l2.526-0.516l1.719,2.298l0.662,2.896l-0.561,4.361
		l0.043,3.998l2.775,2.084l6.268,3.785l2.915,0.094L279.183,207.398z M211.098,130.12l-0.636-0.545l0.368,1.275l0.278,0.445
		L211.098,130.12z M323.047,100.07l2.183-0.006l2.322,0.819l0.001-0.003l-2.32-0.822l-2.185,0.006l-0.223,0.839L323.047,100.07z
		 M328.059,98.942l-0.501-0.44l0.501,0.442V98.942z M331.818,97.959l4.676,1.545l-0.006-0.009l-4.667-1.545l-1.247,2.095
		l-1.38-1.706l1.381,1.712L331.818,97.959z M328.402,97.361l-0.002-0.002l-2.108,0.024l0.008,0.007L328.402,97.361z M348.776,97.591
		l1.267-2.176l-0.003-0.002l-1.268,2.176l-4.752,0.83l-5.086-3.444l-2.469-0.701l-0.941,0.888l0.939-0.883l2.467,0.698l5.091,3.444
		L348.776,97.591z M329.77,92.124l-2.467-1.723l2.19-1.318l0.605-2.647l-0.649,1.489l-2.147,2.476L329.77,92.124L329.77,92.124z"/>
	<path fill="#FFF89F" stroke="#000000" stroke-linecap="round" stroke-linejoin="round" stroke-miterlimit="10" d="M231.188,284.215
		l6.382-4.916l6.478-1.288l6.377,1.969l2.966,1.811l3.133,1.478l2.804-0.602l1.991-2.532l1.474-2.635l-0.534-2.953l0.513-3.08
		l1.235-2.018l2.056-0.336l2.736-1.689l2.593,1.186l1.473,1.551l0.762,3.677l2.004,1.237l7.565-2.256l1.423-4.162l-3.496-1.184
		l-1.577-1.377l-1.352-1.588l1.896-2.567l2.745-1.72l1.133-4.294l-0.868-4.469l4.28-1.439l5.012-2.184l2.456-1.824l5.571,1.19
		l3.747-1.633l3.174,1.049l3.541,2.957l4.673,0.379l4.154-0.21l6.924-3.294l9.025-2.203l4.36,1.126l5.309-0.02l2.153-0.777
		l4.501-1.146l4.368,0.985l1.909,3.203l2.581-0.418l2.679-0.078l5.853,1.991l4.688,0.138l2.478,0.331l2.067,1.283l1.6,2.147
		l2.124,1.513l2.559,0.688l2.493,0.049l3.292,0.085l2.777,1.581l2.799,0.195l2.672,1.1l2.146-0.054l1.022-1.885l1.79-0.98
		l2.244,0.317l2.975-2.566l4.736-1.232l1.975-2.124l2.331-1.736l2.792-0.847l2.849-0.587l14.266-7.052l2.09-1.71l2.81-0.522
		l-0.864-3.024l0.298-3.132l2.091-2.968l2.681-2.441l0.604-2.3l3.375-0.15l2.123-2.017l0.684-55.828l2.724,0.405l2.949,2.373
		l1.857,2.874l2.981,0.951l2.545-1.834l4.267-1.914l2.144-3.988l5.173-22.277l-0.668-7.558l-43.005,0.327l-2.878-1.268l-6.37-3.105
		l-2.531,0.316l-2.239-1.134l-1.771-2.739l-2.151-2.504l-5.782-3.363l-2.58-1.893l-1.82-2.625l-1.805-1.057l-2.15-0.427
		l-6.114-3.271l-2.75-0.005l-2.733-0.333l-5.008-4.625l-1.916,1.159l-0.532,2.728l-3.527,7.577l-2.443,7.771l-0.216,2.235
		l-0.944,2.018l-1.832,3.308l1.013,2.08l-9.418-0.684l-4.132-1.428l-4.032,1.103l-2.704,3.254l-0.561,3.978l2.848,2.525l3.558,1.618
		l3.575,2.188l1.887,3.574l-0.264,2.223l-1.51,1.526l-2.941,0.499l-2.978,2.329l-5.392-1.55l-2.14,1.379l-3.181,1.728l-3.044,1.906
		l-1.112,1.995l2.429,8.758l-0.658,3.162l-2.235,6.784l-0.519,3.72l-1.022,2.427l-1.952,1.836l-1.904,5.643l-4.26,2.589
		l-3.075,0.901l-3.35,0.47l-2.925-0.7l-2.711,0.973l-2.96,5.813l-5.146,2.428l-1.843-1.07l-1.537-1.503l-3.063-0.856l-2.417-1.226
		l-2.553-0.764l-2.103-1.639l-1.25-2.866l-2.21-2.099l-2.418-1.807l-2.26,0.472l-2.566,0.829l-2.029-0.567l-2.745,3.405l-2.298,1.1
		l-2.253-0.133l-0.552,2.152l-1.082,2.956l0.37,2.46l1.743,2.46l-2.915-0.094l-6.268-3.785l-2.775-2.084l-0.043-3.998l0.561-4.361
		l-0.662-2.896l-1.719-2.298l-2.526,0.516l-4.863,2.376l-2.312,1.901l-1.834,2.138l-1.252,2.609l-2.463-0.244l-2.024-1.653
		l-0.687-2.92l-2.363-1.62l-2.977,0.866l-2.424,1.956l-1.684-1.376l-0.009-2.927l-3.203-1.409l-3.442-0.72l-2.991,1.377
		l-6.236-0.602l-4.335,0.389l-2.671,0.458l-2.532,0.939l-2.254,1.79l-4.363,1.401l-1.418-1.509l-2.171-1.93l-2.493-1.527
		l-2.26,0.182l-1.956,1.479l-4.768-0.933l-1.503,1.561l-2.055,1.116l-0.676,2.45l-1.707,1.045l-2.65-2.315l-0.815-1.9l-1.516-1.564
		l-3.384-0.235l-3.232,1.207l-4.936,3.014l-4.529,3.557l0.106,2.192l0.431,2.545l-1.58,2.113l-0.77,2.75l1.465,2.826l-0.237,2.906
		l0.343,2.481l0.73,2.697l0.203,5.373l1.919,4.891l4.401,4.155l4.76,10.349l1.401,6.394l-0.409,3.804l-2.554,7.243l-0.198,3.864
		l0.649,2.399l0.334,2.477l1.19,2.537l1.689,4.051l2.601,4.085l1.767-2.749l0.79-3.301l1.996-2.527l3.172-0.888l7.534,0.774
		l5.374-2.699l-0.445-2.19l-0.945-2.057l-2.131-2.342l1.086-2.38l3.06-4.68l9.134,2.754l6.942,1.396l2.629,1.879l2.291,2.164
		l0.573,4.025l-0.184,4.251l0.331,4.035l1.128,3.856l-0.204,3.237l-0.576,2.983L231.188,284.215z"/>
	<path fill="#B15928" stroke="#000000" stroke-linecap="round" stroke-linejoin="round" stroke-miterlimit="10" d="M282.249,495.152
		l2-1.5l4.957-8.057l0.899-1.973l1.931-0.792l3.404,0.334l2.61-1.676l1.848-1.713l2.453-0.888l6.665-1.592l6.349,1.859l5.399,3.604
		l6.257,1.416l16.87-1.046l3.353-6.915l-0.471-8.284l-0.331-10.023l4.895-5.127l5.619-2.148l7.896-8.08l4.76-2.949l2.763-0.938
		l2.724-4.416l4.543-3.833l5.356-4.012l-0.31-2.527l-0.88-2.683l0.207-6.531l4.056-15.213l0.055-6.842l0.648-2.938l2.081-1.647
		l1.606-3.277l-0.246-3.519l-2.344-1.738l-1.709-2.032l3.438-5.27l5.058-4.305l2.895-2.967l2.178-3.399l-1.7-2.133l-6.916-6.97
		l-2.676-1.719l-2.507-2.035l-3.514-2.085l-3.964-1.466l-2.267-2.297l-0.778-3.307l-0.472-3.283l2.198-6.141l-0.673-3.06
		l-1.31-3.741l-0.054-3.931l2.786-7.554l-0.178-6.715l-0.872-6.613l1.676-7.139l9.251-12.012l3.364-7.262l4.01-6.926l1.814-1.542
		l2.493,0.847l2.46-0.245l0.57-2.479l1.378-2.666l0.272-3.424l-2.244-0.317l-1.79,0.98l-1.022,1.885l-2.146,0.054l-2.672-1.1
		l-2.799-0.195l-2.777-1.581l-3.292-0.085l-2.493-0.049l-2.559-0.688l-2.124-1.513l-1.6-2.147l-2.067-1.283l-2.478-0.331
		l-4.688-0.138l-5.853-1.991l-2.679,0.078l-2.581,0.418l-1.909-3.203l-4.368-0.985l-4.501,1.146l-2.153,0.777l-5.309,0.02
		l-4.36-1.126l-9.025,2.203l-6.924,3.294l-4.154,0.21l-4.673-0.379l-3.541-2.957l-3.174-1.049l-3.747,1.633l-5.571-1.19
		l-2.456,1.824l-5.012,2.184l-4.28,1.439l0.868,4.469l-1.133,4.294l-2.745,1.72l-1.896,2.567l1.352,1.588l1.577,1.377l3.496,1.184
		l-1.423,4.162l-7.565,2.256l-2.004-1.237l-0.762-3.677l-1.473-1.551l-2.593-1.186l-2.736,1.689l-2.056,0.336l-1.235,2.018
		l-0.513,3.08l0.534,2.953l-1.474,2.635l-1.991,2.532l-2.804,0.602l-3.133-1.478l-2.966-1.811l-6.377-1.969l-6.478,1.288
		l-6.382,4.916l-5.801,2.742l0.576-2.983l0.204-3.237l-1.128-3.856l-0.331-4.035l0.184-4.251l-0.573-4.025l-2.291-2.164
		l-2.629-1.879l-6.942-1.396l-9.134-2.754l-3.06,4.68l-1.086,2.38l2.131,2.342l0.945,2.057l0.445,2.19l-5.374,2.699l-7.534-0.774
		l-3.172,0.888l-1.996,2.527l-0.79,3.301l-1.767,2.749l0.05,3.632l0.566,3.544l2.159-0.231l0.953,1.915l0.746,5.852l1.425,5.934
		l-1.88,4.339l-4.342,1.655l-1.848,2.41l0.266,9.145l-4.964,2.579l-0.937,2.292l-2.331,0.961l-4.346,3.252l1.448,2.511l0.35,2.093
		l-3.722,10.578l-0.63,9.038l2.981,12.403l-1.431,2.728l-5.6,1.308l-6.016,1.655l-2.417,3.209l0.737,3.099l5.819,4.248l2.153,0.773
		l0.459,2.501l-0.181,3.096l0.138,2.727l2.689,0.451l3.147-0.848l3.045,3.168l2.522,0.865l4.687-0.272l4.326,1.218l3.263,0.893
		l3.043-0.783l2.513,0.749l1.657-1.426l5.824,1.744l4.59-1.819l2.298-1.838l2.174-1.084l1.642-1.211l1.513-1.416l1.715-1.183
		l2.298-0.506l1.607,1.305l3.197,0.674l3.608,0.686l2.571-0.584l4.49,1.904l2.118,0.508l0.848,2.357l2.117,2.048l0.888,2.188
		l-0.038,3.851l1.51,2.71l1.4,5.255l1.317,2.829l1.822,2.656l1.996,2.198l1.864,1.463l4.038,2.14l2.522,1.177l0.467,1.992
		l1.27,1.628l3.552,1.739l3.205,1.336l1.904,1.476l2.857,4.496l2.397,2.46l3.196,1.209l11.301,0.931l1.722,2.383l1.286,2.163
		l-1.202,2.892l-1.55,2.032l-2.179,1.303l-4.546,5.827l-2.225,7.229l-0.341,8.139l0.527,8.15l-0.774,8.007l-1.8,7.854l5.416,0.105
		L282.249,495.152z"/>
	<path fill="#F5CDB8" stroke="#000000" stroke-linecap="round" stroke-linejoin="round" stroke-miterlimit="10" d="M164.548,206.134
		l1.58-2.113l-0.431-2.545l-0.106-2.192l4.529-3.557l4.936-3.014l3.232-1.207l3.384,0.235l1.516,1.564l0.815,1.9l2.65,2.315
		l1.707-1.045l0.676-2.45l2.055-1.116l1.503-1.561l4.768,0.933l1.956-1.479l2.26-0.182l2.493,1.527l2.171,1.93l1.418,1.509
		l4.363-1.401l2.254-1.79l2.532-0.939l2.671-0.458l1.337-3.326l-0.222-3.46l0.623-2.028l-0.233-2.166l-1.04-1.742l1.302-4.308
		l0.379-2.626l0.983-3.069l-2.242-1.502l-2.605-1.224l-3.399-4.318l-0.35-1.339l-1.736,1.661l-2.11-0.914l0.542-5.733l-0.732-1.918
		l-1.361-1.903l0.956-1.857l0.703-2.036l2.213-0.156l0.849-2.048l2.455,0.179l-2.026-0.743l-2.347,0.039l-2.395,0.768l-1.619-4.778
		l-2.256-1.364l-0.161-2.463l2.939-0.206l2.156-1.367l1.04-1.953l-0.015-1.804l-0.278-0.445l-0.368-1.275l-2.246-1.924l-0.325-2.489
		l-0.008-2.723l-2.358-0.474l-3.15,2.277l-2.006,0.958l-1.986-0.391l-0.161-2.539l1.36-2.146l0.227-2.943l1.552-4.648l1.666-4.489
		l-1.064-2.134l1.368-2.107l-0.742-1.895l0.558-2.344l0.872-2.258l-2.08,0.557l-1.841,1.258l-2.146,0.08l-1.313-1.961l0.452-2.305
		l0.964-2.048l3.342-4.161l0.834-2.17l0.718-5.312l1.378-3.455l0.69-6.217l1.208-2.526l1.416-1.878l-0.996-4.196l0.858-2.238
		l-0.307-3.428l0.484-2.186l3.228,1.424l0.515-2.186l0.001-2.406l0.892-2.784l0.489-3.332l1.636-3.176l0.702-2.256l0.575-7.487
		l0.893-2.535l-1.082-1.874l-0.475-2.078l-0.439-3.148l1.755-1.642l-2.12-1.079l-0.163-1.694l-0.411,0.002l-0.909,1.482
		l-1.411,1.877l-2.706,0.192l1.18-3.533l-39.401,0.189l-36.672-0.405l-2.76-0.679l-2.941,1.558l-4.104,1.549l-3.774,3.811
		l-3.602-0.757l-5.401,0.742l-2.372-0.946l-2.31,1.183l-0.574,2.587l1.397,1.838l0.783,2.202l2.13,0.798l0.795,3.164l1.423,2.352
		l1.197,2.531l-0.357,2.266l1.446,1.999l3.127,1.52l1.905,1.536l5.194,1.886l3.032,1.122l0.46,2.034l-0.139,2.039l-0.186,2.402
		l1.291,1.718l1.324,1.625l0.777,2.805l2.006,2.711l2.413,0.936l-0.057,2.013l-1.019,7.017l1.083,2.18l-0.612,2.983l0.633,3.134
		l-1.211,2.51l0.154,2.594l-2.079,2.16l2.308,0.353l0.241,2.061l-0.971,4.549l2.824,0.388l2.045,2.312l0.664,2.268l-2.658,8.726
		l-0.666,3.445l0.028,6.947l-1.817,2.215l-2.524,1.298l-3.003,0.642l-4.93-2.244l-1.895,0.854l-1.983,2.852l-3.512-0.391
		l-3.008,0.726l-3.596,4.931l-2.94,7.248l-0.618,2.487l-1.09,1.812l-2.491,2.756l0.587,2.766l3.163-0.553l4.084-0.489l-5.101,5.787
		l-0.267,3.213l-1.684,2.314l-0.712,3.095l3.159,3.621l1.519,1.862l1.405,1.486l1.531-2.146l2.651-1.087l6.129,3.436l0.769,1.972
		l2.069,0.35l2.696-0.027l1.806,1.157l2.851,0.126l4.925-0.061l2.118-1.138l1.559-1.778l1.436-2.027l7.657-7.054l3.293,1.29
		l1.934,4.683l1.59,1.802l0.195,5.915l-2.155,5.626l-2.934,4.593l0.556,5.136l0.953,0.01l2.589-2.285l4.123,3.016l0.905,5.628
		l2.01,5.431l1.449,2.684l1.683,2.501L164.548,206.134z"/>
	<path fill="#71B7B2" stroke="#000000" stroke-linecap="round" stroke-linejoin="round" stroke-miterlimit="10" d="M93.887,453.5
		l2.251-6.899l7.319-5.12l-0.303-3.543l-1.4-3.169l0.769-4.895l-2.522-2.839l-3.617-2.144l-2.46-6.724l-4.766-8.716l-2.273-6.399
		l-5.336-29.77l-3.039-6.74l-7.12-5.951l1.369-1.769l16.644-0.347l3.807-0.922l3.061-2.672l4.987-5.758l2.658-1.883l21.464-0.305
		l3.551,0.207l2.481,1.548l1.074,1.708l0.535,0.469l2.173-0.017l1.94,1.342l2.324,3.269l1.674,1.274l2.838-4.225l2.703-0.096
		l0.796,4.76l1.59,2.036l1.554,2.559l1.678,1.901l2.671,7.336l6.016-1.655l5.6-1.308l1.431-2.728l-2.981-12.403l0.63-9.038
		l3.722-10.578l-0.35-2.093l-1.448-2.511l4.346-3.252l2.331-0.961l0.937-2.292l4.964-2.579l-0.266-9.145l1.848-2.41l4.342-1.655
		l1.88-4.339l-1.425-5.934l-0.746-5.852l-0.953-1.915l-2.159,0.231l-0.566-3.544l-0.05-3.632l-2.601-4.085l-1.689-4.051l-1.19-2.537
		l-0.334-2.477l-0.649-2.399l0.198-3.864l2.554-7.243l0.409-3.804l-1.401-6.394l-4.76-10.349l-4.401-4.155l-1.919-4.891
		l-0.203-5.373l-0.73-2.697l-0.343-2.481l0.237-2.906l-1.465-2.826l-1.683-2.501l-1.449-2.684l-2.01-5.431l-0.905-5.628
		l-4.123-3.016l-2.589,2.285l-0.953-0.01l-0.556-5.136l2.934-4.593l2.155-5.626l-0.195-5.915l-1.59-1.802l-1.934-4.683l-3.293-1.29
		l-7.657,7.054l-1.436,2.027l-1.559,1.778l-2.118,1.138l-0.208,0.377l-2.401,2.803l-0.126,2.399l1.93,1.795l0.424,2.537l1.243,1.783
		l0.279,2.518l-1.775,3.462l0.439,2.412l-1.168,2.115l-1.866,1.303l-2.17,0.257l-2.301-0.089l-2.213,1.273l-2.135,0.824l-1.713,1.08
		l-1.478,1.381l-0.857,2.055l2.351,1.256l-0.102,2.083l-2.031,2.009l-3.662,1.733l-2.152,1.965l-2.199,0.684l-1.9,0.823
		l-1.975,1.689l-2.169,1.582l-0.22,2.51l-0.597,2.888l-3.197,5.098l-0.612,2.933l0.789,2.514l-0.017,2.602l-3.482-1.118
		l-1.969,1.281l-2.968,5.214l-4.987,5.849l-1.319,5.651l-1.404,3.446l-1.801,3.183l-2.335,2.888l-6.08,5.65l-2.94,6.046
		l-2.511,1.645l-2.664,1.54l-2.769,2.654l-4.81,2.224l-2.164-0.625l-2.217,0.967l-0.557,1.955l-1.813,1.105l-0.314,2.124
		l-1.479,1.454l-3.192-0.222l-2.542-0.58l-0.327,4.634l-3.519,19.696l0.001,5.603l1.1,2.048l-1.743,3.057l3.783,1.226l2.278,1.345
		l1.504,1.669l2.068,0.834l2.302,1.088l1.258,1.678l1.392,1.517l0.181,2.045l1.905,2.423l1.337,3.468l-0.122,2.723l-1.669,1.412
		l0.967,2.037l-0.874,2.696l0.242,2.605l-1.298,2.872l-0.086,2.009l-1.44,2.698l-1.595,3.621l0.455,4.26l1.607,2.165l3.6,3.312
		l1.556,2.001l8.491,18.442l0.791,3.568l-0.515,4.448l-1.813,1.901l-1.738,0.999l-5.043,4.82l-2.786-0.73l-2.11,0.88l-1.548,1.767
		l-1.295,1.97l-0.647,6.565l0.581,5.234l-1.156,3.216l0.791,2.191l2.402,1.189l7.811,10.193l3.785,3.169l2.752,1.378l1.006,2.916
		l5.931-3.353l3.284-0.978l3.515-0.116l3.217,1.29l1.648,2.7l5.339,5.493L93.887,453.5z"/>
	<path fill="#E3F7EE" stroke="#000000" stroke-linecap="round" stroke-linejoin="round" stroke-miterlimit="10" d="M805.842,503.22
		l3.277-2.26l1.535,2.065l1.331-1.603l0.605-2.115l1.949-0.867l0.109-2.067l-0.428-5.487l0.647-2.184l-3.666-4.967l-0.627-2.316
		l-2.278-3.433l-2.84,0.003l-2.117-0.979l-3.524-0.562l-2.202-1.359l-2.199,0.094l0.158,2.033l-1.552-1.499l-0.015-2.768
		l0.388-3.043l-0.323-2.281l-2.659,0.288l-1.137-2.154l-0.561-2.947l-1.463-2.5l-2.002-1.53l-1.742-2.702l-2.218-1.702l-0.55,0.506
		l-2.785,2.7l-1.45,3.46l-0.417,3.804l-1.017,3.402l-2.214,2.758l1.682,1.3l0.991,2.344l0.562,2.712l2.179,1.41l1.07,3.241
		l-2.412,2.388l-1.346,3.48l-1.395,1.651l-0.954,1.846l2.411,0.335l1.582,1.523l1.808-1.139l2.648-2.947l2.573,1.046l1.883-2.367
		l2.342,0.073l1.804-2.575l3.604-0.183l3.056,0.181l1.999,0.601l2.142,2.517l1.674,2.814l0.014,11.108l1.979,0.965L805.842,503.22z"
		/>
	<path fill="#ABAC61" stroke="#000000" stroke-linecap="round" stroke-linejoin="round" stroke-miterlimit="10" d="M582.641,719.223
		l7.151-3.908l6.221-5.379l4.477-5.305l5.15-4.604l6.106-3.846l2.486-1.104l6.904-5.122l5.753-1.665l6.143-18.942l1.274-2.144
		l0.925-2.328l0.693-4.969l3.572-2.941l4.312-1.359l0.571-3.054l-2.262-3.372l0.694-4.877l-2.014-5.085l0.058-2.6l-1.052-7.098
		l0.511-2.273l3.391-6.86l2.071-7.732l-0.256-2.65l-1.319-2.413l0.629-2.285l1.58-2.013l1.586-1.581l1.347-1.809l2.226-4.012
		l1.966-2.205l2.064-1.33l1.521-2.678l0.951-2.259l3.312-4.915l2.494-0.868l1.749-1.83l0.847-2.248l2.236-2.805l0.311-2.037
		l1.426-1.431l1.596-2.721l2.135-2.114l3.155-2.323l1.28-2.144l0.622-0.769l0.434-2.667l1.841-4.575l1.358-1.8l-0.15-3.814
		l0.875-3.667l0.003-4.09l0.652-3.919l2.322-2.072l2.996-1.014l6.9-1.282l2.835,0.334l2.703,0.697l3.892-0.703l3.793-1.293
		l12.502-2.068l0.438-2.844l-1.506-3.32l-3.285-9.744l1.937-5.803l2.219-2.857l2.899-1.73l3.082-0.347l1.742-3.312l2.834-3.495
		l1.973-3.951l-1.197-1.914l-0.236-2.781l-3.41-1.026l-2.759-1.149l-2.405,0.756l-1.659-1.16l-3.076-0.818l-2.994-4.369l0.755-4.598
		l2.024-4.647l-2.662-6.183l-3.075,1.165l-3.646,0.101l-7.76-2.975l-2.248-1.151l-3.663-0.994l-1.723-3.063l-0.367-2.947
		l1.423-1.549l2.005-4.596l1.689-11.959l-0.21-6.303l-1.403-1.716l-2.157-2.193l-2.068-0.655l-1.14-1.698l-0.897-1.89l-1.97-2.602
		l-2.079-4.579l-1.391-1.5l-0.495-2.15l-0.107-2.237l-2.333-4.03l-3.667-2.832l-1.261,1.149l-3.034,0.399l0.093,2.193l-3.149,0.99
		l-4.075-0.233l-2.117,2.121l-1.865-1.624l-5.021-5.834l-0.892-3.6l-2.625-1.11l-2.682-0.871l-2.195-0.245l-0.623-0.893l-2.473-0.85
		l-1.185,2.081l-1.457,8.977l-2.52,2.237l-2.819,1.135l-2.475,2.984l-3.315,2.448l-1.55,3.152l-2.091,2.073l-2.076-1.385
		l-2.013-3.139l-0.289-2.048l1.618-2.294l-2.063-0.7l-2.343-1.22l-1.14-8.271l-11.368,9.089l-4.163,1.352l-2.338,3.779l-0.129,4.481
		l2.043,18.453l-4.236,6.344l-3.211,1.578l-1.942,7.652l-1.645,3.903l-1.369,3.057l-2.428,0.764l0.911,3.202l-1.202,1.706
		l-1.854,5.809l0.342,14.07l-0.399,3.5l-6.386,3.937l-3.34,6.956l-0.991,3.531l0.476,3.843l0.949,3.772l-0.599,3.658l-2.874,2.97
		l1.702,7.911l1.323,2.302l3.331,0.982l2.742-0.186l5.165,1.531l2.372,2.229l3.354,1.044l2.003,0.238l2.424,1.45l0.423,3.992
		l2.627,0.448l2.776-0.936l5.293,0.937l2.418,0.383l-3.829,5.014l-5.593,5.112l-3.522,6.536l-2.858,6.936l-5.878,1.679l-6.831-2.055
		l-7.285-0.75l-6.824,2.496l-5.662,4.325l-2.609,4.168l0.511,2.634l0.488,2.63l-1.345,2.28l-4.493,0.674l-2.5,0.619l-2.872-0.614
		l-6.792,4.133l-6.011,5.573l-5.349,6.662l-2.926,8.107l-5.508,4.939l-7.173,3.313l-2.3,2.198l-2.9,9.955l0.112,3.725l-0.943,3.535
		l-1.66-1.423l-0.354-6.626l-1.243-1.828l-8.856-1.515l-7.063-2.047l-6.205,0.187l-0.397,3.451l1.275,3.163l0.084,3.478l-1.86,4.117
		l2.1,2.237l-0.295,5.566l2.393,2.363l2.949-0.291l5.283,8.111l14.599,11.557l1.054,3.559l0.224,3.715l3.13-0.745l3.021-1.158
		l4.569-4.278l4.738-4.129l0.366,2.879l0.248,5.566l0.862,2.755l1.326,2.61l-1.201,3.926l-3.136,2.854l-1.18,2.397l-0.318,2.474
		l0.167,3.299l-2.658,3.288l-4.906,6.643l-2.944,1.109l-0.515,4.74l3.351,2.609l10.747-0.377l2.772,0.423l2.735-0.179l1.289-1.633
		l0.724-2.112l3.494-3.051l3.401-0.961l1.46,2.046l2.052,1.242l6.736-1.718l4.701,0.814l6.839-1.247l2.002-2.087l3.434-4.842
		l0.703-1.95l-0.018-3.521l2.47-0.876l0.995,2.193l-0.092,2.538l2.374,5.959l3.082,5.719l-2.437,6.309l-4.233,5.506l1.936,3.718
		L582.641,719.223z"/>
	<path fill="#8CB576" stroke="#000000" stroke-linecap="round" stroke-linejoin="round" stroke-miterlimit="10" d="M837.705,347.772
		l2.195-0.717l0.016-0.927l0.438-4.371l-1.83,1.36l-0.475-3.838l0.749-3.048l0.685-1.904l2.281-2.493l-0.86-2.938l-0.667-3.144
		l-0.653,3.042l-2.041,0.617l-0.521,2.573l-0.875-2.307l-3.836-2.459l-1.631-1.544l-2.145,0.539l-1.934-0.952l-0.467,3.097
		l1.346,2.934l-1.485,1.504l1.396,1.729l-1.316,1.606l1.812,2.736l-0.521,1.941l0.634,2.127l1.835,1.008l-0.645,2.087l1.889-0.663
		l0.727-0.37l2.89,0.998l-0.019,2.201L837.705,347.772z"/>
	<path fill="#7086B4" stroke="#000000" stroke-linecap="round" stroke-linejoin="round" stroke-miterlimit="10" d="M832.583,366.569
		l0.818-2.562l2.062-0.442l1.087-2.981l2.368-6.899l0.926-2.933l0.056-3.695l-2.195,0.717l-3.029,0.426l0.019-2.201l-2.89-0.998
		l-0.727,0.37l0.287,1.294l-1.475,2.139l-3.382-0.657l-2.08,0.455l2.603,0.618l3.521,2.273l3.469-0.021l-1.318,1.797l-2.625-0.694
		l-2.602,1.122l2.271,0.946l-2.14,0.952l-2.309,0.756l2.228,3.134l-3.238,0.505l-1.049,2.32l-0.056,2.748l1.573,1.435l3.903,0.752
		l1.939,0.823L832.583,366.569z"/>
	<path fill="#CB6D91" stroke="#000000" stroke-linecap="round" stroke-linejoin="round" stroke-miterlimit="10" d="M824.618,566.715
		l3.817-2.228l1.496-3.475l2.258-0.726l3.443-0.256l1.078-1.883l0.638-2.601l1.208-1.987l2.268-5.067l1.293-5.265l-1.174-3.067
		l-1.891,2.842l-1.41,2.175l-1.277,2.603l-3.094,1.647l-1.766,1.132l1.84,0.82l-2.438,1.108l-2.717,0.22l-2.105,0.752l0.263,2.2
		l-1.147,1.781l-4.785,3.449l-0.773,1.898l-1.464,1.43l3.577,2.868L824.618,566.715z M743.207,603.561l1.687-4.311l2.03-3.252
		l6.893-0.701l2.016,1.622l4.848-0.995l9.66-3.162l15.053-3.177l3.864-0.094l3.954,2.743l0.812-1.15l0.667-2.506l1.875,1.886
		l1.416-2.98l1.297-3.94l1.15-2.13l2.651-7.021l2.531-3.962l0.992-2.194l-1.652-2.72l-0.048-3.06l-0.689-3.696l1.171-2.526
		l0.288-3.04l-2.084-2.079l-2.679-1.134l-2.917,0.257l1.144-2.269l-2.108-2.066l-0.675,2.511l-1.139,2.596l-1.709,1.922
		l-2.375,0.501l3.881-5.383l-0.873-3.969l0.228-2.641l-0.968-2.518l-0.377-3.224l1.454-8.626l0.927-2.938l2.908-3.312l1.062-2.746
		l-0.511-2.692l-1.511-2.138l2.188,0.036l1.331-1.688l1.332-1.789l1.926-1.859l0.536-2.399l1.088-2.216l-1.979-0.965l-0.014-11.108
		l-1.674-2.814l-2.142-2.517l-1.999-0.601l-3.056-0.181l-3.604,0.183l-1.804,2.575l-2.342-0.073l-1.883,2.367l-2.573-1.046
		l-2.648,2.947l-1.808,1.139l-1.582-1.523l-2.411-0.335l0.954-1.846l1.395-1.651l1.346-3.48l2.412-2.388l-1.07-3.241l-2.179-1.41
		l-0.562-2.712l-0.991-2.344l-1.682-1.3l2.214-2.758l1.017-3.402l0.417-3.804l1.45-3.46l2.785-2.7l0.55-0.506l-2.36-2.896
		l-4.261-4.131l-2.31-0.406l1.987,1.424l-2.469-0.501l-2.151-0.131l-1.81-1.625l-2.379-0.779l-1.45-2.375l-1.244-2.146l-1.799-1.127
		l-0.965-1.958l-0.231-4.392l0.362-3.08l0.758-3.575l-0.283-2.956l-1.338-1.522l-2.474-2.351l-0.724-3.019l-1.29-1.641l-0.36-2.406
		l1.342-3.287l0.441-1.995l-6.495-1.129l-2.833,1.521l-2.154-0.109l-3.116,1.979l-4.475,1.91l-2.136-0.294l-2.954-0.554
		l-1.649,1.214l-2.6-0.564l-2.495-1.99l-2.477,0.121l-2.133-0.922l-2.016-2.885l-3.306-0.884l-2.896-1.083l-2.172-2.428
		l-4.866-2.471l-5.546-0.483l-2.008,0.959l-2.262,0.358l-5.269-1.241l-11.806,3.104l3.667,2.832l2.333,4.03l0.107,2.237l0.495,2.15
		l1.391,1.5l2.079,4.579l1.97,2.602l0.897,1.89l1.14,1.698l2.068,0.655l2.157,2.193l1.403,1.716l0.21,6.303l-1.689,11.959
		l-2.005,4.596l-1.423,1.549l0.367,2.947l1.723,3.063l3.663,0.994l2.248,1.151l7.76,2.975l3.646-0.101l3.075-1.165l2.662,6.183
		l-2.024,4.647l-0.755,4.598l2.994,4.369l3.076,0.818l1.659,1.16l2.405-0.756l2.759,1.149l3.41,1.026l0.236,2.781l1.197,1.914
		l-1.973,3.951l-2.834,3.495l-1.742,3.312l-3.082,0.347l-2.899,1.73l-2.219,2.857l-1.937,5.803l3.285,9.744l1.506,3.32l-0.438,2.844
		l-12.502,2.068l-3.793,1.293l-3.892,0.703l-2.703-0.697l-2.835-0.334l-6.9,1.282l-2.996,1.014l-2.322,2.072l-0.652,3.919
		l-0.003,4.09l-0.875,3.667l0.15,3.814l-1.358,1.8l-1.841,4.575l-0.434,2.667l-0.622,0.769l10.766,8.346l3.913,2.432l9.156,3.276
		l9.53,2.165l4.287,2.227l7.069,6.341l3.754,2.629l5.671,5.54l1.19,7.42l1.234,3.191l4.404,0.172L743.207,603.561z"/>
	<path fill="#DE956B" stroke="#000000" stroke-linecap="round" stroke-linejoin="round" stroke-miterlimit="10" d="M799.733,413.008
		l2.989-1.949l0.437-0.259l-1.388-2.331l-0.47-2.379l-0.665-2.23l-0.188-2.431l0.582-3.293l-0.46-2.76l-2.336-4.309l-0.891-2.396
		l-1.426,1.404l-0.601,5.782l-1.945,3.948l-2.8,2.291l-2.701,1.03l-0.223,2.669l-0.382,4.396l0.893,3.074l0.281,0.019l2.829-0.219
		l2.812,0.278L799.733,413.008z"/>
	<path fill="#F7C2C1" stroke="#000000" stroke-linecap="round" stroke-linejoin="round" stroke-miterlimit="10" d="M795.445,431.671
		l1.14-1.722l-0.296-2.086l-2.125-3.244l-0.12-2l0.525-6.138l-0.488-3.137l-2.812-0.278l-2.829,0.219l-0.281-0.019l0.515,1.798
		l0.598,4.532l-2.152,4.802l1.688,4.765l5.52,4.761L795.445,431.671z"/>
	<path fill="#CAB2D6" stroke="#000000" stroke-linecap="round" stroke-linejoin="round" stroke-miterlimit="10" d="M579.106,513.695
		l0.599-3.658l-0.949-3.772l-0.476-3.843l0.991-3.531l3.34-6.956l6.386-3.937l0.399-3.5l-0.342-14.07l1.854-5.809l1.202-1.706
		l-0.911-3.202l2.428-0.764l1.369-3.057l1.645-3.903l1.942-7.652l3.211-1.578l4.236-6.344l-2.043-18.453l0.129-4.481l2.338-3.779
		l-5.398-1.603l-5.211-2.061l-3.864-3.447l-2.809-4.414l-2.229-4.561l-3.109-3.815l-4.997-2.39l-4.73-2.926l-2.726-3.571
		l-2.219-3.917l-3.628-3.634l-4.032-3.263l-2.978-3.153l-1.03-3.585l1.347-4.396l-0.833-4.936l1.709-4.188l2.482-3.847l1.68-5.487
		l2.922-18.81l0.949-15.905l-0.421-2.56l-1.796-3.988l-1.248-4.281l-0.748-4.397l-0.497-23.209l-19.53,5.472l-2.326,1.766
		l-2.801,1.77l-2.394,3.969l-3.871-0.096l-1.913,1.306l-1.889,0.934l-2.667-1.306l-2.093,2.22l-3.366,3.212l-7.858,3.542
		l-1.067,1.781l0.578,2.572l1.375,2.768l-0.746,2.983l-3.966,6.261l-5.372,10.897l-1.72,2.778l-4.07,0.684l-7.139-0.667
		l-1.998-0.584l0.312,2.758l-1.291,2.602l-0.702,2.029l-19.021,13.038l-0.412,2.612l1.593,2.621l0.241,2.906l-0.074,2.919
		l0.997,3.176l1.408,3.064l1.237,5.314l1.793,2.604l2.124,2.274l0.957,2.467l2.541,3.022l2.124,1.668l0.513,2.777l1.969,3.249
		l2.581,2.809l0.867,2.265l-1.603,1.972l-2.425,2.113l-0.389,3.157l-0.759,2.992l-2.005,2.937l-2.772,6.508l-0.297,9.078
		l-1.692,7.038l0.638,6.797l1.574,2.768l0.729,3.086l-0.035,2.817l-1.296,2.494l-0.808,7.031l1.362,13.401l-2.156,5.218l-9.79,0.447
		l1.257,7.286l0.357,8.318l7.534,4.577l7.827-1.214l1.591-1.682l2.216-0.563l2.635-0.001l2.601-0.426l3.726,0.332l3.642,1.254
		l2.71,2.522l1.097,1.895l3.739,0.422l3.73,1.372l5.541,3.075l2.743,0.227l2.496-0.177l6.826,1.699l2.172,1.096l2.502,0.758
		l4.691,1.377l4.496-1.073l2.622,0.694l2.745,0.019l7.012,2.825l3.312,0.847l1.442,3.202l1.101,1.956l1.77,1.308l1.61,3.021
		l0.49,2.132l2.004,0.383l2.087-0.669l3.595-0.037l3.179,1.252l0.896,3.011L579.106,513.695z"/>
	<path fill="#33A02C" stroke="#000000" stroke-linecap="round" stroke-linejoin="round" stroke-miterlimit="10" d="M435.524,764.013
		l2.171-0.986l6.658-4.301l3.559-5.015l5.683-2.791l6.609-5.13l0.401-5.14l1.84-2.024l2.604-0.944l2.819,0.021l2.771-0.58
		l0.975-2.634l6.493-9.035l-0.728-5.125l-3.048-4.476l0.243-3.815l-1.169-2.79l-1.705-1.609l-1.425-2.119l0.742-2.134l2.554-1.384
		l5.624-2.314l7.522-8.028l5.006-2.69l6.729-6.247l2.932-1.907l2.326-2.418l2.949-1.854l3.547-1.696l2.782-2.02l2.328-2.235
		l-0.224-3.715l-1.054-3.559l-14.599-11.557l-5.283-8.111l-2.949,0.291l-2.393-2.363l0.295-5.566l-2.1-2.237l1.86-4.117
		l-0.084-3.478l-1.275-3.163l0.397-3.451l6.205-0.187l7.063,2.047l8.856,1.515l1.243,1.828l0.354,6.626l1.66,1.423l0.943-3.535
		l-0.112-3.725l2.9-9.955l2.3-2.198l7.173-3.313l5.508-4.939l2.926-8.107l5.349-6.662l6.011-5.573l6.792-4.133l2.872,0.614
		l2.5-0.619l4.493-0.674l1.345-2.28l-0.488-2.63l-0.511-2.634l2.609-4.168l5.662-4.325l6.824-2.496l7.285,0.75l6.831,2.055
		l5.878-1.679l2.858-6.936l3.522-6.536l5.593-5.112l3.829-5.014l-2.418-0.383l-5.293-0.937l-2.776,0.936l-2.627-0.448l-0.423-3.992
		l-2.424-1.45l-2.003-0.238l-3.354-1.044l-2.372-2.229l-5.165-1.531l-2.742,0.186l-3.331-0.982l-1.323-2.302l-1.702-7.911
		l-0.896-3.011l-3.179-1.252l-3.595,0.037l-2.087,0.669l-2.004-0.383l-0.49-2.132l-1.61-3.021l-1.77-1.308l-1.101-1.956
		l-1.442-3.202l-3.312-0.847l-7.012-2.825l-2.745-0.019l-2.622-0.694l-4.496,1.073l-4.691-1.377l-2.502-0.758l-2.172-1.096
		l-6.826-1.699l-2.496,0.177l-2.743-0.227l-5.541-3.075l-3.73-1.372l-3.739-0.422l-1.097-1.895l-2.71-2.522l-3.642-1.254
		l-3.726-0.332l-2.601,0.426l-2.635,0.001l-2.216,0.563l-1.591,1.682l-7.827,1.214l-7.534-4.577l-3.115-0.96l-3.228-0.377
		l-3.219-0.814l-2.979-0.264l-2.593,2.042l-2.882,1.621l-3.308,1.88l-2.865,2.313l-0.89,7.572l-2.896,5.495l-22.841,4.786
		l-3.911,4.722l-1.392,3.71l-3.625,0.536l-3.618-0.157l-3.482-1.274l-3.562-0.028l-2.659,2.951l-2.385,3.364l-6.4,4.38l-6.801,3.824
		l1.999,1.335l0.151,3.619l-1.543,1.874l-2.115,5.025l-1.765,3.035l-2.102,2.806l-1.412,2.891l-0.666,3.19l1.126,2.278l2.974,0.391
		l36.067-1.874l3.983,0.32l11.475,2.718l2.861,2.009l3.309,1.086l20.989,3.357l0.768,2.37l-0.28,2.013l2.058,0.36l3.733-0.31
		l3.515,1.263l2.129,2.172l-1.875,2.55l-3.388,2.644l-4.261,1.271l-1.883,2.32l-2.795,6.479l-2.024,3.396l-2.738,2.105l-3.266,1.104
		l-2.841,2.657l-2.2,3.384l-1.614,3.25l1.232,3.178l1.657,2.429l1.256,2.677l-0.902,5.105l-1.942,5.099l-1.735,1.201l-2.535-0.299
		l-2.894,1.072l-2.485,1.752l-2.02,4.084l-2.716,2.9l-3.58,1.437l-3.989,0.088l-7.418-1.06l-7.719,1.9l-4.452,0.11l-4.525-0.406
		l-3.921,1.611l-0.787,2.249l-2.156,0.715l-5.711-1.963l-4.209,0.845l-3.182,2.864l-4.417,7.265l0.457,3.72l2.58,2.973l1.797,3.307
		l1.31,3.531l-2.054,2.506l2.629,0.581l1.062,3.486l1.738,2.244l4.239,7.312l2.345,3.205l3.003,0.835l3.11,3.116l-0.297,2.558
		l-0.001,0.012l0.07,0.045l1.801,1.457l2.013,2.451l0.616,0.746l0.519,0.489l1.395,1.31l2.232,1.009l7.519,7.945l2.299,0.846
		l0.001,0.003l0.003,0.001l0.689,2.432l0.823,2.103l0.021,0.022l2.046,1.946l0.481,0.541l0.917,0.806l7.798,9.885l3.173,4.867
		l0.026,0.037l0.002,0.014l0.908,2.646l-0.214,0.938l0.159,0.821l-0.662,1.79l0.4,3.171l0.002,0.011l1.691,3.803l0.868,1.951v0.003
		l0.002,0.004l0.188,1.069l0.549,3.086l0.812,2.672l-0.092,0.541l0.068,0.301l-1.123,9.484l1.391,3.199l0.012,0.021l0.161,2.194
		l-0.804,3.097l0.021,0.085l0.156-0.006l1.988-0.373l1.847,0.804L435.524,764.013z"/>
	<path fill="#8CB2C5" stroke="#000000" stroke-linecap="round" stroke-linejoin="round" stroke-miterlimit="10" d="M705.06,786.048
		l2.721-1.802l3.84-5.69l4.81-4.81l20.537-8.314l6.893-0.475l2.438-1.156l2.623,0.108l2.209,1.588l2.98,0.875l5.38-0.396l1.44-1.588
		l2.126-1.524l5.98-2.679l3.593-1.159l6.421-3.51l3.134-1.279l2.522,0.558l0.478,2.48l0.929,2.099l3.412-0.653l0.821-3.284
		l0.881-1.799l2.48,0.179l2.393-1.133l1.993-2.188l3.83-0.342l5.853,3.846l2.456,7.201l2.299,2.253l2.166,5.507l3.116,1.708
		l2.576-2.351l1.844-2.734l-0.375-2.803l-1.956-1.721l-0.011-2.106l1.37-3.016l0.539-3.339l2.008-2.591l3.238-1.142l12.532-6.964
		l2.718-2.024l2.489-1.517l-0.062-3.513l-4.561-7.839l-2.921-1.712l-2.148-0.108l-1.617-1.664l-2.303,0.141l-2.593-0.781
		l-3.657,4.337l-1.979,0.344l2.037-1.689l0.75-2.557l-0.893-2.886l2.381-0.557l3.44-2.346l-2.806-2.789l2.226,0.295l2.031-2.34
		l-1.575-3.711l-1.72-1.763l-1.406-2.762l-3.334-0.922l2.877-1.798l-0.045-2.027l-0.136-2.449l-1.39-1.575l0.646-2.49l-1.824-1.941
		l-1.495-5.821l-2.305-3.05l-1.105-2.168l-2.098,0.06l-3.172,0.55l0.177-3.34l2.94-0.427l1.735-1.043l1.328-2.252l-0.101-3.354
		l0.117-3.037l-0.95-1.85l1.243-2.452l-0.336-2.423l-1.298-2.259l-3.268-4.273l-2.039-0.991l-2.117,1.483l-2.1-0.519l-0.693-2.135
		l0.995-1.812l-0.524-2.245l-1.047-2.604l0.599-3.292l-1.316-1.526l-2.093-0.603l1.31-2.079l-5.845-0.057l3.244-2.91l2.653,0.508
		l1.543,1.941l2.733,2.449l2.102-0.75l-2.992-2.943l-1.496-3.855l-1.92-1.127l-1.504-1.872l-0.337-2.637l-1.998-0.594l-1.824-1.911
		l-2.235-2.331l-0.084-8.303l-0.648-2.022l-0.955-1.82l-2.554-2.683l-0.215-2.207l0.568-4.53l-0.078-2.38l-0.321-2.184l-1.22-3.345
		l-3.954-2.743l-3.864,0.094l-15.053,3.177l-9.66,3.162l-4.848,0.995l-2.016-1.622l-6.893,0.701l-2.03,3.252l-1.687,4.311
		l-3.618,2.163l-4.404-0.172l-1.234-3.191l-1.19-7.42l-5.671-5.54l-3.754-2.629l-7.069-6.341l-4.287-2.227l-9.53-2.165l-9.156-3.276
		l-3.913-2.432l-10.766-8.346l-1.28,2.144l-3.155,2.323l-2.135,2.114l-1.596,2.721l-1.426,1.431l-0.311,2.037l-2.236,2.805
		l-0.847,2.248l-1.749,1.83l-2.494,0.868l-3.312,4.915l-0.951,2.259l-1.521,2.678l-2.064,1.33l-1.966,2.205l-2.226,4.012
		l-1.347,1.809l-1.586,1.581l-1.58,2.013l-0.629,2.285l1.319,2.413l0.256,2.65l-2.071,7.732l-3.391,6.86l-0.511,2.273l1.052,7.098
		l-0.058,2.6l2.014,5.085l-0.694,4.877l2.262,3.372l-0.571,3.054l-4.312,1.359l-3.572,2.941l-0.693,4.969l-0.925,2.328l-1.274,2.144
		l-6.143,18.942l-1.081,4.668l-1.869,4.538l-3.403,4.854l-5.93,6.496l-6.417,5.786l-1.985,4.272l-0.553,4.763l0.255,5.692
		l-0.264,5.625l3.787,3.282l18.576,7.259l42.671,10.729l3.582,2.644l2.312,1.328l2.077,1.684l1.865,3.178l1.313,3.574l1.949,3.469
		l1.063,3.678l1.302,2.022l1.691,1.944l3.765,7.14L705.06,786.048z"/>
	<path fill="#AE603D" stroke="#000000" stroke-linecap="round" stroke-linejoin="round" stroke-miterlimit="10" d="M731.366,831.488
		l7.626-5.079l3.2-3.271l2.094-0.549l2.385-0.87l2.573,0.528l2.27-0.699l4.118-3.537l2.955-1.316l2.314-1.845l2.374-0.518
		l10.029,0.108l3.877-1.038l2.98-0.137l4.706,2.359l2.039,0.045l1.949-0.566l1.794-0.965l15.221-11.963l2.548-1.077l5.928-0.385
		l12.937-2.708l1.959-0.795l7.779-5.243l9.429-4.063l9.737-7.435l3.057-1.648l1.482-1.884l4.615-4.471l2.944-2.151l5.003-1.688
		l2.778-1.95l2.495-2.44l1.019-4.001l-0.492-2.05l0.877-2.646l-2.003-0.025l2.288-2.391l0.082-2.662l-1.979-0.575l0.521,2.771
		l-2.871,0.543l-3.537-1.156l-3.589-6.999l-2.779-2.392l-1.659-2.322l-2.675,3.225l5.266,2.151l-2.147-0.026l-1.502,1.503
		l-1.757-1.614l-2.214-0.929l-1.18,1.754l-2.457-0.632l1.182-1.831l-0.837-2.041l0.78-2.195l-0.688-1.901l-3.054-1.148l-1.499-0.382
		l-3.48-1.419l-2.386-0.152l0.493,2.246l0.337,2.577l-1.218,2.198l-0.619-3.352l-2.489,1.517l-2.718,2.024l-12.532,6.964
		l-3.238,1.142l-2.008,2.591l-0.539,3.339l-1.37,3.016l0.011,2.106l1.956,1.721l0.375,2.803l-1.844,2.734l-2.576,2.351l-3.116-1.708
		l-2.166-5.507l-2.299-2.253l-2.456-7.201l-5.853-3.846l-3.83,0.342l-1.993,2.188l-2.393,1.133l-2.48-0.179l-0.881,1.799
		l-0.821,3.284l-3.412,0.653l-0.929-2.099l-0.478-2.48l-2.522-0.558l-3.134,1.279l-6.421,3.51l-3.593,1.159l-5.98,2.679
		l-2.126,1.524l-1.44,1.588l-5.38,0.396l-2.98-0.875l-2.209-1.588l-2.623-0.108l-2.438,1.156l-6.893,0.475l-20.537,8.314l-4.81,4.81
		l-3.84,5.69l-2.721,1.802l-13.462,0.867l2.256,15.905l5.123,18.495l1.663-0.51l1.519,1.329l3.289,1.227l2.469-0.898l3.549,0.581
		l2.726,1.938l4.181,4.508l2.713,1.416l6.066,1.586l2.287,1.35L731.366,831.488z"/>
	<path fill="#EF979F" stroke="#000000" stroke-linecap="round" stroke-linejoin="round" stroke-miterlimit="10" d="M587.177,856.625
		l2.059-0.225l1.728-1.453l4.401-2.181l2.151-3.133l4.81-4.53l2.232,0.494l3.028,1.465l7.824-0.914l1.896-1.214l0.903,2.403
		l2.075,2.637l2.655,2.272l2.686,1.315l6.504,1.522l3.342,0.382l4.114-0.998l2.195,0.09l1.982,1.777l3.787,1.089l3.218-0.229
		l1.593-1.583l1.263-2.149l2.327-0.652l4.446-1.758l2.435-0.008l3.069-1.083l3.441-2.729l7.208-3.539l1.604-1.885l-0.585-1.931
		l0.122-2.795l1.869-3.273l0.642-2.358l1.938-5.345l6.14-3.016l4.548-1.101l6.15-0.676l-5.123-18.495l-2.256-15.905l-3.765-7.14
		l-1.691-1.944l-1.302-2.022l-1.063-3.678l-1.949-3.469l-1.313-3.574l-1.865-3.178l-2.077-1.684l-2.312-1.328l-3.582-2.644
		l-42.671-10.729l-18.576-7.259l-3.787-3.282l0.264-5.625l-0.255-5.692l0.553-4.763l1.985-4.272l6.417-5.786l5.93-6.496l3.403-4.854
		l1.869-4.538l1.081-4.668l-5.753,1.665l-6.904,5.122l-2.486,1.104l-6.106,3.846l-5.15,4.604l-4.477,5.305l-6.221,5.379
		l-7.151,3.908l-5.235,0.122l-1.936-3.718l4.233-5.506l2.437-6.309l-3.082-5.719l-2.374-5.959l0.092-2.538l-0.995-2.193l-2.47,0.876
		l0.018,3.521l-0.703,1.95l-3.434,4.842l-2.002,2.087l-6.839,1.247l-4.701-0.814l-6.736,1.718l-2.052-1.242l-1.46-2.046L542,700.502
		l-3.494,3.051l-0.724,2.112l-1.289,1.633l-2.735,0.179l-2.772-0.423l-10.747,0.377l-3.351-2.609l0.515-4.74l2.944-1.109
		l4.906-6.643l2.658-3.288l-0.167-3.299l0.318-2.474l1.18-2.397l3.136-2.854l1.201-3.926l-1.326-2.61l-0.862-2.755l-0.248-5.566
		l-0.366-2.879l-4.738,4.129l-4.569,4.278l-3.021,1.158l-3.13,0.745l-2.328,2.235l-2.782,2.02l-3.547,1.696l-2.949,1.854
		l-2.326,2.418l-2.932,1.907l-6.729,6.247l-5.006,2.69l-7.522,8.028l-5.624,2.314l-2.554,1.384l-0.742,2.134l1.425,2.119
		l1.705,1.609l1.169,2.79l-0.243,3.815l3.048,4.476l0.728,5.125l-6.493,9.035l-0.975,2.634l-2.771,0.58l-2.819-0.021l-2.604,0.944
		l-1.84,2.024l-0.401,5.14l-6.609,5.13l-5.683,2.791l-3.559,5.015l-6.658,4.301l-2.171,0.986l-2.411,0.159l-1.847-0.804
		l-1.988,0.373l-0.156,0.006l0.279,1.214l0.402,0.969l0.368,0.615l2.315,1.235l0.102,0.819l0.12,0.078l1.805,3.932l0.791,3.282
		l-0.524,2.367l0.919,1.123l0.492,0.595l-1.206,2.368l0.294,2.049l-0.001,0.003l0,0l-0.991,4.886l-0.001,0.028l0.002,3.437
		l-0.149,0.381l-0.017,0.429l-0.626,1.215l-0.772,1.974l-2.243,2.883l-0.002,0.014l-0.048,3.143l1.023,3.631l0.198,0.807
		l0.611,2.479l0.003,0.004l3.663,3.159l0.377,0.737l0.025,0.024l1.994,1.531l0.186,0.254l0.428,0.162l0.207,0.702l0.45,0.614
		l0.7,2.49l0.822,1.306l1.623,1.346l-1.565,1.501l0.033,0.061l2.201,3.023l2.004-0.414l0.484,0.147l0.145-0.064l3.128,1.062
		l0.188,0.058l1.866,0.973l0.874,1.274l1.135,1.649l1.769,1.782l1.281,2.744l0.813,0.813l0.687,1.471l0.184,0.271l0.074,0.281
		l0.303,0.65l0.019,0.562l0.15,0.572l0.133,4.729l32.002,0.346l4.564,1.081l2.213,0.063l2.206-0.768l1.629,2.095l1.819-1.116
		l2.503,0.812l1.875-0.998l4.913-1.582l1.188-2.685l1.789-1.645l0.819-2.547l5.214-1.758l3.426-3.729l3.138,0.589l2.671,1.073
		l3.917,0.481l1.312,1.62l-0.044,3.22l2.918,0.331l2.695,0.653l3.545,2.05l3.08,1.273l1.709,1.1l1.656,2.062l0.676,3.33
		l-0.266,2.777l1.553,2.029l4.077-0.361l3.11,0.846l2.803-0.79l3.708-1.247l9.55,0.452l1.358,2.413l3.243,1.124L587.177,856.625z"/>
	<path fill="#FF7F00" stroke="#000000" stroke-linecap="round" stroke-linejoin="round" stroke-miterlimit="10" d="M386.004,522.75
		l6.4-4.38l2.385-3.364l2.659-2.951l3.562,0.028l3.482,1.274l3.618,0.157l3.625-0.536l1.392-3.71l3.911-4.722l22.841-4.786
		l2.896-5.495l0.89-7.572l2.865-2.313l3.308-1.88l2.882-1.621l2.593-2.042l2.979,0.264l3.219,0.814l3.228,0.377l3.115,0.96
		l-0.357-8.318l-1.257-7.286l9.79-0.447l2.156-5.218l-1.362-13.401l0.808-7.031l1.296-2.494l0.035-2.817l-0.729-3.086l-1.574-2.768
		l-0.638-6.797l1.692-7.038l0.297-9.078l2.772-6.508l2.005-2.937l0.759-2.992l0.389-3.157l2.425-2.113l1.603-1.972l-0.867-2.265
		l-2.581-2.809l-1.969-3.249l-0.513-2.777l-2.124-1.668l-2.541-3.022l-0.957-2.467l-2.124-2.274l-1.793-2.604l-1.237-5.314
		l-1.408-3.064l-0.997-3.176l0.074-2.919l-0.241-2.906l-1.593-2.621l0.412-2.612l19.021-13.038l0.702-2.029l1.291-2.602
		l-0.312-2.758l-4.648-1.791l-2.938-5.501l-4.569-0.809l-3.134-2.156l0.034-3.291l-0.74-3.098l-5.199-2.533l-2.858-6.329
		l-3.886-4.473l-5.313-3.154l-3.523-3.918l2.904-7.908l4.164-7.547l4.47-5.945l-0.201-2.329l-6.671-7.258l-2.872-5.911l-5.357-3.93
		l-4.923-4.491l-2.81,0.522l-2.09,1.71l-14.266,7.052l-2.849,0.587l-2.792,0.847l-2.331,1.736l-1.975,2.124l-4.736,1.232
		l-2.975,2.566l-0.272,3.424l-1.378,2.666l-0.57,2.479l-2.46,0.245l-2.493-0.847l-1.814,1.542l-4.01,6.926l-3.364,7.262
		l-9.251,12.012l-1.676,7.139l0.872,6.613l0.178,6.715l-2.786,7.554l0.054,3.931l1.31,3.741l0.673,3.06l-2.198,6.141l0.472,3.283
		l0.778,3.307l2.267,2.297l3.964,1.466l3.514,2.085l2.507,2.035l2.676,1.719l6.916,6.97l1.7,2.133l-2.178,3.399l-2.895,2.967
		l-5.058,4.305l-3.438,5.27l1.709,2.032l2.344,1.738l0.246,3.519l-1.606,3.277l-2.081,1.647l-0.648,2.938l-0.055,6.842
		l-4.056,15.213l-0.207,6.531l0.88,2.683l0.31,2.527l-5.356,4.012l-4.543,3.833l-2.724,4.416l-2.763,0.938l-4.76,2.949l-7.896,8.08
		l-5.619,2.148l-4.895,5.127l0.331,10.023l0.471,8.284l-3.353,6.915l2.365,2l1.781,2.563l1.102,4.061l0.605,4.269l1.886,3.121
		l3.309,1.237l2.702,2.61l1.846,3.449l1.231,1.805l1.521,1.561l4.463,1.354l0.991,1.802l0.253,2.122l1.386,3.264l0.312,3.215
		l2.801,1.135L375.68,525l3.523,1.574L386.004,522.75z"/>
	<path fill="#D99EB9" stroke="#000000" stroke-linecap="round" stroke-linejoin="round" stroke-miterlimit="10" d="M566.445,262.569
		l0.762-1.59l3.51-0.674L574.38,260l2.14-0.677l2.211,0.095l2.396-0.046l0.115-4.479l-1.728-9.89l-0.656-8.945l1.289-3.166
		l4.68-6.115l2.924-0.848l3.169-1.935l1.128-2.701l5.7-0.273l2.846,1.368l1.47,2.625l2.392-0.55l1.928-2.577l2.056-2.257
		l5.868-0.043l1.789-1.603l1.458-2.04l2.483-1.661l2.724-1.016l-0.122-14.192l-2.899-5.367l-5.442-3.61l-2.5-1.104l-1.893-1.847
		l-0.71-3.665l-0.112-3.751l1.813-5.136l5.223-1.518l2.611-1.114l1.977-2.059l4.687-3.811l3.618-2.379l3.976-0.114l2.876-0.025
		l2.826,0.343l2.541,1.502l6.445,2.699l3.439,0.795L480.964,73.428l-1.694,30.816l0.621,3.499l2.951,1.922l4.446,1.325l1.098,3.88
		l-1.167,4.61l-1.982,4.193l-2.199,0.705l-1.893,0.888l-3.237,9.151l0.668,7.558l-5.173,22.277l-2.144,3.988l-4.267,1.914
		l-2.545,1.834l-2.981-0.951l-1.857-2.874l-2.949-2.373l-2.724-0.405l-0.684,55.828l-2.123,2.017l-3.375,0.15l-0.604,2.3
		l-2.681,2.441l-2.091,2.968l-0.298,3.132l0.864,3.024l4.923,4.491l5.357,3.93l2.696-1.455l2.962-1.232l2.704-1.447l5.674-2.569
		l0.978-2.105l7.436-4.56l2.397,0.034l2.195-0.718l2.722-1.874l3.108-1.133l5.187-5.23l3.302-0.025l3.026,1.644l3.146,0.622
		l2.438,1.034l-1.988,2.257l-1.536,2.646l2.363,2.445l3.526,0.485l1.366-2.06l-0.239-3.004l9.277-2.465l1.359-2.799l0.467-5.444
		l2.066,0.286l1.028,3.712l-1.936,5.616l-0.557,5.695l3.287,4.942l0.237-2.345l2.078-2.628l2.787-2.433l3.793-4.998l4.506-1.511
		l2.562,3.68l3.71,6.997l17.592,25.654l3.872,1.644L566.445,262.569z"/>
	<path fill="#1F78B4" stroke="#000000" stroke-linecap="round" stroke-linejoin="round" stroke-miterlimit="10" d="M610.617,408.348
		l11.368-9.089l9.275-6.285l2.479-4.013l1.712-9.161l1.499-4.203l7.193-9.228l1.77-5.189l1.756-7.547l0.09-2.228l0.025-3.87
		l11.536-13.854l4.317-3.856l3.883,0.027l3.779,1.289l4.625,1.125l4.798-1.103l3.889-1.281l6.707-1.164l2.046,1.509l2.151,1.238
		l3.752,0.167l-0.66-2.965l-1.294-2.021l-0.892-2.206l-0.535-2.56l-1.527-2.06l-1.063-3.352l0.067-3.776l0.638-5.17l3.912-4.1
		l-2.051-2.45l-1.693-1.502l-2.357-0.657l-1.857-0.961l-6.447,0.038l-4.66,2.066l-1.875-0.697l-5.389-4.17l-8.583-4.083L659,287.69
		l-2.57-4.449l-0.13-5.998l0.459-6.047l-0.159-2.516l0.065-2.438l1.181-2.85l-0.072-2.172l-0.459-2.113l-2.635-7.546l-0.679-3.962
		l0.305-8.692l-1.366-3.488l-2.303-4.086l-2.863-4.925l-4.182-4.584l-2.395-5.731l-0.816-2.478l-2.284-0.147l-2.161-0.704
		l-1.953-2.608l-3.103,0.586l-2.081,2.078l-2.138-0.227l-3.901,0.673l-2.724,1.016l-2.483,1.661l-1.458,2.04l-1.789,1.603
		l-5.868,0.043l-2.056,2.257l-1.928,2.577l-2.392,0.55l-1.47-2.625l-2.846-1.368l-5.7,0.273l-1.128,2.701l-3.169,1.935l-2.924,0.848
		l-4.68,6.115l-1.289,3.166l0.656,8.945l1.728,9.89l-0.115,4.479l-2.396,0.046l-2.211-0.095L574.38,260l-3.663,0.305l-3.51,0.674
		l-0.762,1.59l-3.628,0.455l-3.872-1.644l-17.592-25.654l-3.71-6.997l-2.562-3.68l-4.506,1.511l-3.793,4.998l-2.787,2.433
		l-2.078,2.628l-0.237,2.345l-3.287-4.942l0.557-5.695l1.936-5.616l-1.028-3.712l-2.066-0.286l-0.467,5.444l-1.359,2.799
		l-9.277,2.465l0.239,3.004l-1.366,2.06L502.034,234l-2.363-2.445l1.536-2.646l1.988-2.257l-2.438-1.034l-3.146-0.622l-3.026-1.644
		l-3.302,0.025l-5.187,5.23l-3.108,1.133l-2.722,1.874l-2.195,0.718l-2.397-0.034l-7.436,4.56l-0.978,2.105l-5.674,2.569
		l-2.704,1.447l-2.962,1.232l-2.696,1.455l2.872,5.911l6.671,7.258l0.201,2.329l-4.47,5.945l-4.164,7.547l-2.904,7.908l3.523,3.918
		l5.313,3.154l3.886,4.473l2.858,6.329l5.199,2.533l0.74,3.098l-0.034,3.291l3.134,2.156l4.569,0.809l2.938,5.501l4.648,1.791
		l1.998,0.584l7.139,0.667l4.07-0.684l1.72-2.778l5.372-10.897l3.966-6.261l0.746-2.983l-1.375-2.768l-0.578-2.572l1.067-1.781
		l7.858-3.542l3.366-3.212l2.093-2.22l2.667,1.306l1.889-0.934l1.913-1.306l3.871,0.096l2.394-3.969l2.801-1.77l2.326-1.766
		l19.53-5.472l0.497,23.209l0.748,4.397l1.248,4.281l1.796,3.988l0.421,2.56l-0.949,15.905l-2.922,18.81l-1.68,5.487l-2.482,3.847
		l-1.709,4.188l0.833,4.936l-1.347,4.396l1.03,3.585l2.978,3.153l4.032,3.263l3.628,3.634l2.219,3.917l2.726,3.571l4.73,2.926
		l4.997,2.39l3.109,3.815l2.229,4.561l2.809,4.414l3.864,3.447l5.211,2.061l5.398,1.603L610.617,408.348z"/>
	<path fill="#F7E6D7" stroke="#000000" stroke-linecap="round" stroke-linejoin="round" stroke-miterlimit="10" d="M701.448,300.999
		l26.793-37.972l-50.229-36.662l-1.836-3.014l-1.93-6.031l-2.562-1.731l-3.314-0.598l-3.952-0.876l0.938-2.818l-2.231-1.365
		l0.461-2.61l1.533-1.946l1.749-1.374l3.329-1.103l0.179-2.483l2.198-0.765l-3.05-19.088l-1.189-1.93l-17.222-9.72l-3.439-0.795
		l-6.445-2.699l-2.541-1.502l-2.826-0.343l-2.876,0.025l-3.976,0.114l-3.618,2.379l-4.687,3.811l-1.977,2.059l-2.611,1.114
		l-5.223,1.518l-1.813,5.136l0.112,3.751l0.71,3.665l1.893,1.847l2.5,1.104l5.442,3.61l2.899,5.367l0.122,14.192l3.901-0.673
		l2.138,0.227l2.081-2.078l3.103-0.586l1.953,2.608l2.161,0.704l2.284,0.147l0.816,2.478l2.395,5.731l4.182,4.584l2.863,4.925
		l2.303,4.086l1.366,3.488l-0.305,8.692l0.679,3.962l2.635,7.546l0.459,2.113l0.072,2.172l-1.181,2.85l-0.065,2.438l0.159,2.516
		l-0.459,6.047l0.13,5.998l2.57,4.449l4.001,3.319l8.583,4.083l5.389,4.17l1.875,0.697l4.66-2.066l6.447-0.038l1.857,0.961
		l2.357,0.657l1.693,1.502l2.051,2.45L701.448,300.999z"/>
	<path fill="#8CB576" stroke="#000000" stroke-linecap="round" stroke-linejoin="round" stroke-miterlimit="10" d="M477.907,134.417
		l3.237-9.151l1.893-0.888l2.199-0.705l1.982-4.193l1.167-4.61l-1.098-3.88l-4.446-1.325l-2.951-1.922l-0.621-3.499l1.694-30.816
		l-91.955-51.232l-0.013,0.597l-2.423,1.605l-1.361,1.643l-2.409,0.003l-0.167,2.176l-2.123,3.476l-3.734,2.047l-2.305,1.919
		l-1.018,2.551l2.792,2.325l1.969-0.613l0.995,2.002l2.83,2.287l0.453,2.106l-2.088-1.543l-2.188-0.425l-2.249-1.077l-6.575,0.43
		l-2.248,0.633l2.518,3.126l2.211,1.802l-4.339-0.737l-1.272,1.708l1.798,1.497l2.037-0.098l1.683,1.123l1.225,2.258l2.115,1.192
		l2.615-0.168l1.159,1.843l-1.501,1.376l-0.764,0.516l-1.95-0.829l-3.67-0.232l-1.966-1.554l-1.504-2.174l-2.006,0.614l-2.905,0.837
		l-2.263-0.702l-1.943-1.058l-2.11,0.328l0.614,2.377l1.89,1.417l-1.16,2.361l-2.293,0.413l-2.308,0.913l2.68-0.005l2.191,1.111
		l1.072,1.861l-1.604,1.873l2.676-0.004l0.537,2.499l-1.642,1.206l-8.026,0.052l-2.82-0.299l2.288,2.973l1.596,2.173l3.315,1.483
		l-1.821,1.454l-2.906-1.121l-1.247,2.465l-1.871,1.55l-1.997,1.1l-1.768,1.046l-3.275-0.184l-0.221-2.959l-4.662-0.039
		l-3.933,2.139l-1.326,3.123l-0.197,0.452l-0.605,2.647l-2.19,1.318l2.467,1.723l3.015-1.545l3.1-2.172l2.735-0.17l1.68-1.207
		l2.602,2.801l-1.602,2.668l3.34,0.306l3.119,0.75l2.283,1.855l-0.002,0.003l0.003,0.002l-1.267,2.176l-4.755,0.83l-5.091-3.444
		l-2.467-0.698l-0.939,0.883l-1.211,1.14l2.182,3.195l-0.007-0.002l0.006,0.009l-4.676-1.545l-1.243,2.092l-1.381-1.712
		l-0.792-0.978L326.3,97.39l1.258,1.112l0.501,0.44v0.002l0,0l-0.502,1.937l-0.004-0.001l-0.001,0.003l-2.322-0.819l-2.183,0.006
		l-0.222,0.833l-0.332,1.251l-0.966,2.496l0.374,2.022l2.035-0.692l3.36-0.822l2.217,0.808l2.026,1.122l1.187,1.811l3.782-0.276
		l3.846-0.364l4.699,0.143l4.432,0.774l3.096,1.552l1.82-1.951l2.214-1.257l4.287-2.948l2.921-1.463l2.896,0.701l2.309,2.211
		l0.003,0.006l0.002,0.002l1.223,3.069l3.059,2.452l2.053-0.961l5.297,0.3l3.104-0.291l0.532-2.728l1.916-1.159l5.008,4.625
		l2.733,0.333l2.75,0.005l6.114,3.271l2.15,0.427l1.805,1.057l1.82,2.625l2.58,1.893l5.782,3.363l2.151,2.504l1.771,2.739
		l2.239,1.134l2.531-0.316l6.37,3.105l2.878,1.268L477.907,134.417z"/>
	<path fill="#DE956B" stroke="#000000" stroke-linecap="round" stroke-linejoin="round" stroke-miterlimit="10" d="M632.382,416.242
		l1.55-3.152l3.315-2.448l2.475-2.984l2.819-1.135l2.52-2.237l1.457-8.977l1.185-2.081l2.473,0.85l0.623,0.893l2.195,0.245
		l2.682,0.871l2.625,1.11l0.892,3.6l5.021,5.834l1.865,1.624l2.117-2.121l4.075,0.233l3.149-0.99l-0.093-2.193l3.034-0.399
		l1.261-1.149l11.806-3.104l5.269,1.241l2.262-0.358l2.008-0.959l5.546,0.483l4.866,2.471l2.172,2.428l2.896,1.083l3.306,0.884
		l2.016,2.885l2.133,0.922l2.477-0.121l2.495,1.99l2.6,0.564l1.649-1.214l2.954,0.554l2.136,0.294l4.475-1.91l3.116-1.979
		l2.154,0.109l2.833-1.521l6.495,1.129l0.369-0.989l1.283-1.977l0.062-5.053l0.87-3.505l1.74-2.609l1.436-2.89l1.756-2.689
		l0.091-3.649l-0.531-2.1l2.554-1.619l2.756-4.098l2.27-4.583l0.438-4.823l-0.702-2.025l2.434-1.582l1.953-3.157l2.982-10.752
		l-2.422,1.028l2.416-3.578l2.08-3.888l3.167-3.876l-0.896-3.07l-3.478-0.003l1.754-2.194l1.986-0.722l-0.447-5.23l-1.338-2.114
		l2.891-1.289l1.879-2.635l-0.77,2.988l1.18,1.749l3.025-5.463l0.407-3.012l-0.854-2.18l-2.894-0.812l3.593-2.396l0.452-2.525
		l-0.493-2.209l-1.903-0.877l-60.136-44.07l-26.793,37.972l-3.534,2.426l-3.912,4.1l-0.638,5.17l-0.067,3.776l1.063,3.352
		l1.527,2.06l0.535,2.56l0.892,2.206l1.294,2.021l0.66,2.965l-3.752-0.167l-2.151-1.238l-2.046-1.509l-6.707,1.164l-3.889,1.281
		l-4.798,1.103l-4.625-1.125l-3.779-1.289l-3.883-0.027l-4.317,3.856l-11.536,13.854l-0.025,3.87l-0.09,2.228l-1.756,7.547
		l-1.77,5.189l-7.193,9.228l-1.499,4.203l-1.712,9.161l-2.479,4.013l-9.275,6.285l1.14,8.271l2.343,1.22l2.063,0.7l-1.618,2.294
		l0.289,2.048l2.013,3.139l2.076,1.385L632.382,416.242z"/>
</g>
<g>
	<text transform="matrix(1 0 0 1 508.1504 793)" font-family="'ArialMT'" font-size="24">Ruwuma</text>
	<g>
		<text transform="matrix(1 0 0 1 508.1504 793)" font-family="'ArialMT'" font-size="24">Ruwuma</text>
	</g>
</g>
<g>
	<text transform="matrix(1 0 0 1 481.4824 544)" font-family="'ArialMT'" font-size="24">Iringa</text>
	<g>
		<text transform="matrix(1 0 0 1 481.4824 544)" font-family="'ArialMT'" font-size="24">Iringa</text>
	</g>
</g>
<g>
	<text transform="matrix(1 0 0 1 298.4824 601)" font-family="'ArialMT'" font-size="24">Mbeya</text>
	<g>
		<text transform="matrix(1 0 0 1 298.4824 601)" font-family="'ArialMT'" font-size="24">Mbeya</text>
	</g>
</g>
<g>
	<text transform="matrix(1 0 0 1 143.8203 490)" font-family="'ArialMT'" font-size="24">Rukwa</text>
	<g>
		<text transform="matrix(1 0 0 1 143.8203 490)" font-family="'ArialMT'" font-size="24">Rukwa</text>
	</g>
</g>
<g>
	<text transform="matrix(1 0 0 1 75.8125 309)" font-family="'ArialMT'" font-size="24">Kigoma</text>
	<g>
		<text transform="matrix(1 0 0 1 75.8125 309)" font-family="'ArialMT'" font-size="24">Kigoma</text>
	</g>
</g>
<g>
	<text transform="matrix(1 0 0 1 253.4785 362)" font-family="'ArialMT'" font-size="24">Tabora</text>
	<g>
		<text transform="matrix(1 0 0 1 253.4785 362)" font-family="'ArialMT'" font-size="24">Tabora</text>
	</g>
</g>
<g>
	<text transform="matrix(0.7718 -0.6359 0.6359 0.7718 393.6768 470.9951)" font-family="'ArialMT'" font-size="24">Singida</text>
	<g>
		<text transform="matrix(0.7718 -0.6359 0.6359 0.7718 393.6768 470.9951)" font-family="'ArialMT'" font-size="24">Singida</text>
	</g>
</g>
<g>
	<text transform="matrix(0.7718 -0.6359 0.6359 0.7718 502.5654 459.3828)" font-family="'ArialMT'" font-size="24">Dodoma</text>
	<g>
		<text transform="matrix(0.7718 -0.6359 0.6359 0.7718 502.5654 459.3828)" font-family="'ArialMT'" font-size="24">Dodoma</text>
	</g>
</g>
<g>
	<text transform="matrix(1 0 0 1 733.1602 792)" font-family="'ArialMT'" font-size="24">Mtwara</text>
	<g>
		<text transform="matrix(1 0 0 1 733.1602 792)" font-family="'ArialMT'" font-size="24">Mtwara</text>
	</g>
</g>
<g>
	<text transform="matrix(1 0 0 1 702.1465 680)" font-family="'ArialMT'" font-size="24">Lindi</text>
	<g>
		<text transform="matrix(1 0 0 1 702.1465 680)" font-family="'ArialMT'" font-size="24">Lindi</text>
	</g>
</g>
<g>
	<text transform="matrix(1 0 0 1 712.8164 562)" font-family="'ArialMT'" font-size="24">Pwani</text>
	<g>
		<text transform="matrix(1 0 0 1 712.8164 562)" font-family="'ArialMT'" font-size="24">Pwani</text>
	</g>
</g>
<g>
	<text transform="matrix(1 0 0 1 685.4746 366)" font-family="'ArialMT'" font-size="24">Tanga</text>
	<g>
		<text transform="matrix(1 0 0 1 685.4746 366)" font-family="'ArialMT'" font-size="24">Tanga</text>
	</g>
</g>
<g>
	<text transform="matrix(1 0 0 1 691.4404 215.4966)" font-family="'ArialMT'" font-size="24">Kilimanjaro</text>
	<g>
		<text transform="matrix(1 0 0 1 691.4404 215.4966)" font-family="'ArialMT'" font-size="24">Kilimanjaro</text>
	</g>
</g>
<g>
	<text transform="matrix(0.6549 -0.7557 0.7557 0.6549 585.7646 351.0747)" font-family="'ArialMT'" font-size="24">Manyara</text>
	<g>
		
			<text transform="matrix(0.6549 -0.7557 0.7557 0.6549 585.7646 351.0747)" fill="none" stroke="#1F78B4" stroke-linecap="round" stroke-linejoin="round" stroke-miterlimit="10" font-family="'ArialMT'" font-size="24">Manyara</text>
	</g>
	<g>
		
			<text transform="matrix(0.6549 -0.7557 0.7557 0.6549 585.7646 351.0747)" fill="#FFFFFF" font-family="'ArialMT'" font-size="24">Manyara</text>
	</g>
</g>
<g>
	<text transform="matrix(1 0 0 1 507.4785 177)" font-family="'ArialMT'" font-size="24">Arusha</text>
	<g>
		<text transform="matrix(1 0 0 1 507.4785 177)" font-family="'ArialMT'" font-size="24">Arusha</text>
	</g>
</g>
<g>
	<text transform="matrix(1 0 0 1 392.1602 89)" font-family="'ArialMT'" font-size="24">Mara</text>
	<g>
		<text transform="matrix(1 0 0 1 392.1602 89)" font-family="'ArialMT'" font-size="24">Mara</text>
	</g>
</g>
<g>
	<text transform="matrix(1 0 0 1 239.8164 168)" font-family="'ArialMT'" font-size="24">Mwanza</text>
	<g>
		
			<text transform="matrix(1 0 0 1 239.8164 168)" fill="none" stroke="#6A3D9A" stroke-width="5" font-family="'ArialMT'" font-size="24">Mwanza</text>
	</g>
	<g>
		<text transform="matrix(1 0 0 1 239.8164 168)" fill="#FFFFFF" font-family="'ArialMT'" font-size="24">Mwanza</text>
	</g>
</g>
<g>
	<text transform="matrix(0.998 -0.0628 0.0628 0.998 242.3018 236.5488)" font-family="'ArialMT'" font-size="24">Shinyanga</text>
	<g>
		<text transform="matrix(0.998 -0.0628 0.0628 0.998 242.3018 236.5488)" font-family="'ArialMT'" font-size="24">Shinyanga</text>
	</g>
</g>
<g>
	<text transform="matrix(0.3492 -0.937 0.937 0.3492 158.9854 147.0928)" font-family="'ArialMT'" font-size="24">Kagera</text>
	<g>
		<text transform="matrix(0.3492 -0.937 0.937 0.3492 158.9854 147.0928)" font-family="'ArialMT'" font-size="24">Kagera</text>
	</g>
</g>
<g>
	<text transform="matrix(0.5495 -0.8355 0.8355 0.5495 609.7607 605.9316)" font-family="'ArialMT'" font-size="24">Morogoro</text>
	<g>
		<text transform="matrix(0.5495 -0.8355 0.8355 0.5495 609.7607 605.9316)" font-family="'ArialMT'" font-size="24">Morogoro</text>
	</g>
</g>
<text transform="matrix(1 0 0 1 831.5557 493.5869)" font-family="'ArialMT'" font-size="21">Dar es Salaam</text>
<text transform="matrix(1 0 0 1 843.5693 393.0928)"><tspan x="0" y="0" font-family="'ArialMT'" font-size="21">Zanzibar North</tspan><tspan x="0" y="25.2" font-family="'ArialMT'" font-size="21">Zanzibar Urban/West</tspan><tspan x="0" y="50.4" font-family="'ArialMT'" font-size="21">Zanzibar Centra/South</tspan></text>
<text transform="matrix(1 0 0 1 860.5693 320.0967)"><tspan x="0" y="0" font-family="'ArialMT'" font-size="21">Pemba North</tspan><tspan x="0" y="25.2" font-family="'ArialMT'" font-size="21">Pemba South</tspan></text>
<g>
	<g>
		<line fill="none" stroke="#000000" x1="809.5" y1="486" x2="810.5" y2="486"/>
		<line fill="none" stroke="#000000" stroke-dasharray="2.1429,2.1429" x1="812.643" y1="486" x2="824.429" y2="486"/>
		<line fill="none" stroke="#000000" x1="825.5" y1="486" x2="826.5" y2="486"/>
	</g>
</g>
<g>
	<g>
		
			<line fill="none" stroke="#000000" stroke-linecap="round" stroke-linejoin="round" x1="842.5" y1="326" x2="843.229" y2="325.314"/>
		
			<line fill="none" stroke="#000000" stroke-linecap="round" stroke-linejoin="round" stroke-dasharray="1.9405,1.9405" x1="844.642" y1="323.985" x2="858.065" y2="311.351"/>
		
			<line fill="none" stroke="#000000" stroke-linecap="round" stroke-linejoin="round" x1="858.771" y1="310.686" x2="859.5" y2="310"/>
	</g>
</g>
<g>
	<g>
		
			<line fill="none" stroke="#000000" stroke-linecap="round" stroke-linejoin="round" x1="858.5" y1="341" x2="857.613" y2="341.463"/>
		
			<line fill="none" stroke="#000000" stroke-linecap="round" stroke-linejoin="round" stroke-dasharray="2.1167,2.1167" x1="855.738" y1="342.444" x2="841.669" y2="349.797"/>
		
			<line fill="none" stroke="#000000" stroke-linecap="round" stroke-linejoin="round" x1="840.73" y1="350.288" x2="839.845" y2="350.751"/>
	</g>
</g>
<g>
	<line fill="none" x1="801.03" y1="398.136" x2="838.5" y2="387"/>
</g>
<g>
	<g>
		
			<line fill="none" stroke="#000000" stroke-width="0.75" stroke-linecap="round" stroke-linejoin="round" x1="838.5" y1="387" x2="837.534" y2="387.259"/>
		
			<line fill="none" stroke="#000000" stroke-width="0.75" stroke-linecap="round" stroke-linejoin="round" stroke-dasharray="1.9262,1.9262" x1="835.674" y1="387.758" x2="799.396" y2="397.491"/>
		
			<line fill="none" stroke="#000000" stroke-width="0.75" stroke-linecap="round" stroke-linejoin="round" x1="798.466" y1="397.741" x2="797.5" y2="398"/>
	</g>
</g>
<g>
	<g>
		
			<line fill="none" stroke="#000000" stroke-width="0.75" stroke-linecap="round" stroke-linejoin="round" x1="837.822" y1="412.894" x2="836.843" y2="413.096"/>
		
			<line fill="none" stroke="#000000" stroke-width="0.75" stroke-linecap="round" stroke-linejoin="round" stroke-dasharray="1.9983,1.9983" x1="834.886" y1="413.5" x2="792.809" y2="422.178"/>
		
			<line fill="none" stroke="#000000" stroke-width="0.75" stroke-linecap="round" stroke-linejoin="round" x1="791.83" y1="422.38" x2="790.851" y2="422.582"/>
	</g>
</g>
<g>
	<g>
		
			<line fill="none" stroke="#000000" stroke-width="0.75" stroke-linecap="round" stroke-linejoin="round" x1="837.647" y1="442.001" x2="836.691" y2="441.707"/>
		
			<line fill="none" stroke="#000000" stroke-width="0.75" stroke-linecap="round" stroke-linejoin="round" stroke-dasharray="1.9813,1.9813" x1="834.798" y1="441.124" x2="809.231" y2="433.261"/>
		
			<line fill="none" stroke="#000000" stroke-width="0.75" stroke-linecap="round" stroke-linejoin="round" x1="808.285" y1="432.969" x2="807.329" y2="432.675"/>
	</g>
</g>
<g>
	<g>
		
			<line fill="none" stroke="#000000" stroke-width="0.75" stroke-linecap="round" stroke-linejoin="round" x1="688.451" y1="207.923" x2="687.746" y2="208.633"/>
		
			<line fill="none" stroke="#000000" stroke-width="0.75" stroke-linecap="round" stroke-linejoin="round" stroke-dasharray="1.9146,1.9146" x1="686.397" y1="209.991" x2="670.88" y2="225.611"/>
		
			<line fill="none" stroke="#000000" stroke-width="0.75" stroke-linecap="round" stroke-linejoin="round" x1="670.205" y1="226.291" x2="669.5" y2="227"/>
	</g>
</g>
</svg>
